<?xml version="1.0" encoding="utf-8"?>
<!-- Generator: Adobe Illustrator 16.0.4, SVG Export Plug-In . SVG Version: 6.00 Build 0)  -->
<!DOCTYPE svg PUBLIC "-//W3C//DTD SVG 1.1//EN" "http://www.w3.org/Graphics/SVG/1.1/DTD/svg11.dtd">
<svg version="1.1" id="Layer_1" xmlns="http://www.w3.org/2000/svg" xmlns:xlink="http://www.w3.org/1999/xlink" x="0px" y="0px"
	 width="32px" height="32px" viewBox="0 0 32 32" enable-background="new 0 0 32 32" xml:space="preserve">
<g>
	<path fill="#FFFFFF" d="M6.288,20.309c0.136,0,0.304-0.033,0.438-0.067c0.676-0.102,0.912,0.034,0.947,0.101l0.033,0.068
		c-0.033,0.811,0.102,3.312,0.102,3.312L7.91,20.41l-0.068,0.033c-0.127,0,0.133-0.133,0.613-0.207
		c0.032,0.026,0.064,0.053,0.111,0.076c0.221,0.109,0.416,0.061,0.526-0.05c0.094,0.155,0.276,0.294,0.606,0.294l0,0
		c0.09,0,0.189-0.01,0.301-0.032c0.188-0.045,0.322-0.104,0.422-0.17c0.15,0.044,0.305,0.094,0.462,0.157
		c0,0.135,0.034,3.412,0.034,4.427c-0.305-0.067-0.946-0.169-1.42-0.202H9.397c-0.542-0.034-1.217,0.168-1.556,0.338v-0.71
		l-0.033-0.44l-0.102,0.44v0.743c-0.135-0.102-0.845-0.236-1.419-0.236c-0.102-0.033-0.169-0.033-0.271-0.033
		c-0.574,0-0.609,0.168-0.945,0.371c-0.068,0.034-0.136,0.067-0.136,0c0-0.439,0.067-1.386,0.169-2.534v-0.541
		c0-0.642-0.068-1.42-0.068-1.757C5.24,20.377,5.713,20.377,6.288,20.309 M4.546,12.96c-0.086-0.657,0.167-1.081,0.432-1.259
		c0.212-0.143,0.452-0.157,0.657-0.041c0.359,0.205,0.543,0.757,0.502,1.511c-0.236,3.688,1.934,6.21,1.955,6.235
		c0.043,0.049,0.116,0.054,0.166,0.01c0.048-0.042,0.053-0.116,0.011-0.165c-0.018-0.021-1.495-1.745-1.839-4.417
		c0.088,0.262,0.174,0.475,0.195,0.541c0.068,0.169,0.068,0.541,0.203,0.676c0.372,0.371,0.203-0.338,0.271-0.507
		c0.271-0.677,0.372,0.608,0.474,0.811c0.338-0.879,0.608,0,0.574,0.507c0-0.135,0.203-0.743,0.338-0.743
		c0.102-0.034,0.169,0.643,0.169,0.676c0.202-0.203,0.136-0.608,0.338-0.845c0.169,0.236,0.135,0.676,0.306,0.946
		c0.236-0.135,0.101-0.913,0.101-1.149c0.169,0.236,0.235,0.575,0.337,0.879c0.034,0.102,0.034,0.338,0.17,0.338
		c0.202,0.034,0.136-0.236,0.136-0.338c-0.035-0.236-0.171-1.047,0.236-0.541c0.18,0.211,0.229,0.552,0.308,0.84
		c-0.013,0.078-0.022,0.152-0.038,0.242c-0.067,0.608,0.169,0.574,0.237,1.014c0.054,0.235,0.166,0.343,0.258,0.394
		c-0.051,0.005-0.157,0.016-0.297,0.036c-0.324-0.369-0.551-0.85-0.583-0.916v0.067c0-0.101-0.067-0.136-0.136-0.136
		c-0.1,0-0.135,0.035-0.135,0.136c0,0.065,0.007,0.106,0.709,0.87c-0.176,0.028-0.381,0.067-0.598,0.121L9.991,18.74
		c-0.303-0.236-0.642-1.08-0.642-1.08c-0.067-0.068-0.404-0.035-0.371,0.033c-0.229-0.23,0.392,0.655,0.879,1.097
		c-0.272,0.075-0.551,0.171-0.785,0.3c-0.521,0.271-0.795,0.559-0.793,0.83l0.006,0.051H8.282H8.248c0,0-0.035,0.013-0.079,0.029
		l-0.003-0.007C8.135,19.959,5.041,16.496,4.546,12.96 M10.479,14.496c-0.202,0.169-0.237,0.507-0.676,0.102
		c-0.439-0.372-0.27-0.474-0.372-0.574c-0.067-0.068-0.271-0.338-0.271-0.508c0-0.135-0.067-0.405-0.067-0.574
		s-0.203-0.271-0.169-0.405c0.024-0.099,0.12-0.215,0.17-0.337L9.194,12.3C9.329,12.367,9.329,12.4,9.329,12.4s-0.101,0.236,0,0.271
		c0.068,0.067,0.102-0.034,0.169-0.135c0.102-0.102,0-0.169,0.102-0.236c0.068-0.102,0-0.271,0-0.406l-0.541-0.136v0.027
		l-0.033-0.061c0,0,0.203-0.033,0.067-0.27c-0.136-0.204-0.102-0.204-0.067-0.271c0-0.101-0.068-0.101,0.033-0.202
		c0.17-0.102,0.136-0.304,0.271-0.405c0.169-0.136,0.339-0.034,0.304,0.202c0.068-0.136,0.102-0.338,0.236-0.438
		c0.068,0.202,0,0.473,0.068,0.675c0.135-0.304,0.271-0.709,0.541-0.945c0,0.202-0.067,0.371-0.103,0.54
		c0.035-0.102,0.103-0.169,0.17-0.236c0,0.135,0,0.305,0.034,0.439c0.203-0.102,0.338-0.372,0.607-0.405
		c0.136,0.271-0.033,0.506-0.27,0.71c0.135-0.103,0.438,0.101,0.473,0.202s-0.067,0.271-0.067,0.405
		c-0.034,0.271,0.033,0.744,0.135,0.98c0.069,0.135-0.473-0.271-0.507-0.135c0,0.135,0.169,0.371,0.203,0.506
		c0,0.136,0.135,0.305,0.067,0.372s-0.271-0.439-0.338-0.236c-0.034,0.236,0.236,0.474,0.236,0.474s-0.169,0-0.101,0.202
		c0.101,0.203,0.168,0.372,0.168,0.372s-0.304-0.406-0.371-0.305c-0.067,0.136,0,0.271-0.067,0.338
		C10.648,14.395,10.682,14.327,10.479,14.496 M9.16,10.711l-0.169,0.034c0,0-0.034-0.169-0.136-0.169
		c-0.101,0-0.168-0.034-0.168-0.034s-0.034-0.372,0.102-0.304C8.924,10.306,9.16,10.711,9.16,10.711 M7.555,11.86
		c0-1.893,1.599-3.431,3.565-3.431c1.985,0,3.6,1.538,3.6,3.431c0,0.052-0.005,0.103-0.007,0.153
		c-0.092-0.082-0.176-0.168-0.246-0.256c-0.271-0.303-0.137-0.337-0.373-0.473c-0.236-0.135-0.168-0.034-0.54-0.202
		c-0.338-0.136-0.136-0.237-0.203-0.474s-0.169-0.202-0.304-0.371s-0.102-0.103-0.271-0.203c-0.203-0.136-0.169-0.067-0.304-0.169
		c-0.136-0.067-0.103-0.102-0.237-0.236c-0.136-0.136-0.337-0.136-0.608-0.067c-0.271,0.067-0.067,0.033-0.371-0.102
		c-0.305-0.102-0.305,0-0.507,0c-0.169,0-0.237,0.033-0.508,0.033c-0.304,0-0.135,0-0.337,0.102
		C9.701,9.663,9.633,9.731,9.498,9.832C9.363,9.934,9.194,9.899,9.16,9.934c-0.067,0.034-0.203,0.202-0.203,0.202
		s-0.304-0.134-0.404,0c-0.068,0.136-0.034,0.44-0.034,0.71c-0.034,0.271,0,0.237,0,0.405c-0.034,0.204-0.034,0.17-0.169,0.406
		c-0.136,0.271,0.135,0.473,0.102,0.608c-0.033,0.169,0.033,0.305,0.033,0.405c-0.033,0.102,0,0.271,0.068,0.439
		c0.033,0.203,0,0.102,0,0.338c0.033,0.237,0.135,0.102,0.371,0.304c0.202,0.17,0,0.136,0.102,0.305
		c0.135,0.169,0.101,0.136,0.236,0.304c0.136,0.203,0.067,0.169,0.136,0.339c0.067,0.168,0.304,0.27,0.405,0.304
		c0,0,0.254,0.005,0.604,0.186C8.781,14.873,7.555,13.5,7.555,11.86 M15.312,14.463c-0.103,0.066-0.575,0-0.811-0.136
		c-0.134-0.083-0.233-0.207-0.302-0.312c-0.07-0.108-0.105-0.195-0.105-0.195c0.013,0.023,0.094,0.052,0.194,0.082
		c0.188,0.057,0.45,0.123,0.516,0.188C14.905,14.158,15.446,14.429,15.312,14.463 M15.008,12.637c0,0,0.304,0.439,0.438,0.608
		c0.102,0.136-0.574-0.438-0.574-0.438L15.008,12.637z M15.615,13.448c0.137,0.039,0.52,0.226,0.827,0.407l0.008,0.005
		c0.221,0.132,0.401,0.261,0.416,0.332c-0.169,0.067-0.677,0.067-0.846-0.034s-0.304-0.439-0.54-0.541L15.615,13.448z
		 M17.271,14.801c0.168,0.202,0.474,0.405,0.474,0.405s-0.204,0.033-0.474-0.136c-0.201-0.172-0.4-0.487-0.456-0.58
		C16.88,14.551,17.125,14.626,17.271,14.801 M15.784,14.36c0,0,0.203-0.033,0.474,0.237c0.27,0.27,0.337,0.473,0.337,0.473
		L15.784,14.36z M15.817,15.408c0,0-0.474,0.034-0.71-0.305c-0.235-0.303,0.102-0.473,0.102-0.473s0,0.473,0.305,0.608
		L15.817,15.408z M14.399,15.476c0,0,0.304-0.202,0.473,0.136c0.202,0.338-0.068,0.743-0.068,0.743v-0.338
		C14.804,15.713,14.399,15.476,14.399,15.476 M11.442,19.478c-0.071,0.049-0.22,0.121-0.491,0.14c-0.301,0-0.379,0.151-0.447,0.285
		l-0.031,0.061c-0.061,0.108-0.156,0.221-0.422,0.303l-0.103,0.029c-0.091,0.018-0.175,0.027-0.249,0.027l0,0
		c-0.183,0-0.29-0.056-0.355-0.123c-0.091-0.093-0.1-0.208-0.101-0.229l-0.034-0.08l-0.068-0.036l-0.015-0.001l-0.089,0.051
		l-0.025,0.039c-0.002,0.008-0.049,0.2-0.194,0.2c-0.042,0-0.091-0.015-0.146-0.041c-0.088-0.044-0.131-0.097-0.146-0.153
		l-0.012-0.031c-0.001-0.132,0.173-0.363,0.668-0.621c0.611-0.334,1.575-0.458,1.843-0.486L11.442,19.478z M11.192,18.635
		l-0.006-0.01l-0.007-0.007l0.008,0.001L11.192,18.635 M11.492,15.949c0.101,0.067,0.236,0.744,0.101,1.115l-0.168,0.405
		c0,0,0.067-0.811-0.034-1.115c-0.135-0.304-0.203-0.709-0.203-0.709C11.188,15.713,11.425,15.882,11.492,15.949 M11.732,15.204
		l-0.004,0.103c-0.054,0.188-0.232,0.016-0.306-0.063l-0.032-0.037c0-0.237-0.034-0.777-0.034-0.777S11.695,14.924,11.732,15.204
		 M11.662,9.697c0,0,0.371,0,0.473,0.202c0.136,0.203,0.202,0.271,0.202,0.271L11.662,9.697z M13.655,11.421
		c0,0,0.371,0.034,0.474,0.236C14.229,11.826,13.655,11.421,13.655,11.421 M13.892,13.145c-0.236-0.236-0.271-0.508-0.271-0.508
		c0,0.034,0.498,0.201,0.736,0.699l0.008,0.012c0.051,0.096,0.092,0.17,0.13,0.235c0.161,0.278,0.208,0.305,0.208,0.305
		s-0.109-0.072-0.281-0.188c-0.059-0.038-0.125-0.082-0.195-0.13l-0.031-0.02C13.926,13.381,14.094,13.381,13.892,13.145
		 M13.824,14.867c-0.071-0.106-0.107-0.221-0.127-0.325c-0.023-0.128-0.02-0.239-0.015-0.3l0.006-0.05l0.011,0.033
		c0.016,0.04,0.055,0.11,0.124,0.207c0.03,0.04,0.062,0.083,0.103,0.131c0.135,0.203,0.27,0.405,0.439,0.507
		C14.501,15.206,14.061,15.138,13.824,14.867 M13.959,16.017c0,0-0.068,0.375-0.014,0.617c0.07,0.124,0.106,0.197,0.048,0.127
		c-0.021-0.034-0.037-0.079-0.048-0.127c-0.133-0.233-0.392-0.651-0.392-0.651L13.959,16.017z M13.452,13.955
		c0,0-0.135-0.033-0.405-0.236c-0.236-0.169-0.305-0.304-0.439-0.405s-0.405-0.338-0.405-0.338c0.068,0.033,0.473,0.067,0.608,0.236
		c0.168,0.169,0.236,0.338,0.439,0.507C13.452,13.888,13.452,13.955,13.452,13.955 M12.844,12.671
		c-0.474-0.169-0.777-0.473-0.777-0.473s0.846,0.169,1.115,0.473c0.236,0.305,0.372,0.812,0.372,0.812S13.283,12.873,12.844,12.671
		 M12.209,16.289c-0.152-0.259-0.547-0.678-0.547-0.678s0.236-0.102,0.236-0.169C11.898,15.442,12.1,16.002,12.209,16.289
		c0.031,0.052,0.055,0.1,0.062,0.133C12.291,16.498,12.261,16.424,12.209,16.289 M12.506,14.395
		c-0.473-0.338-0.676-1.014-0.676-1.115c0,0,0.743,0.777,0.946,0.879c0.175,0.059,0.325,0.118,0.472,0.437
		c0.022,0.051,0.046,0.106,0.069,0.172l0.021,0.051c0.169,0.423,0.419,0.489,0.419,0.489l0.1,0.305c0,0-0.405-0.067-0.574-0.474
		c-0.03-0.09-0.064-0.159-0.103-0.22c-0.045-0.07-0.098-0.128-0.159-0.179C12.897,14.638,12.733,14.553,12.506,14.395
		 M12.607,16.523c-0.034-0.574,0-0.878,0-0.878l0.135-0.17c0,0,0.17,1.149,0.135,1.318c-0.033,0.169-0.404,0.743-0.404,0.743
		S12.642,17.098,12.607,16.523 M12.54,10.373c0,0,0.236-0.102,0.372,0.102c0.102,0.203,0.169,0.438,0.169,0.438L12.54,10.373z
		 M13.25,11.657c0.304,0.203,0.574,0.338,0.676,0.643c0.101,0.271-0.474-0.136-0.845-0.372c-0.339-0.203-0.846-0.913-0.846-0.913
		S12.979,11.421,13.25,11.657 M16.562,21.298l-0.03,0.011l0.007-0.052L16.562,21.298 M16.555,20.598l0.06,0.014l-0.046,0.044
		L16.555,20.598 M17.066,21.68c-0.029,0.044-0.062,0.096-0.102,0.16l-0.006-0.09l-0.028-0.079
		C16.979,21.686,17.021,21.684,17.066,21.68 M17.475,21.836c-0.035-0.041-0.064-0.092-0.087-0.142h0.119l-0.015,0.019L17.475,21.836
		 M18.718,21.457l-0.05-0.034l0.033-0.007L18.718,21.457 M19.231,21.273c0.027,0.056,0.062,0.126,0.078,0.17l-0.024-0.009
		l-0.113-0.054c0.037-0.031,0.049-0.074,0.053-0.119L19.231,21.273 M19.607,21.116c-0.029-0.031-0.073-0.095-0.104-0.142
		l-0.055-0.078l0.057-0.053C19.566,20.959,19.607,21.069,19.607,21.116 M19.985,20.807l-0.12-0.04l0.055-0.038L19.985,20.807
		 M20.348,20.475c-0.039-0.012-0.087-0.022-0.132-0.033l0.091-0.034L20.348,20.475z M20.76,19.935
		c0.097-0.029,0.191-0.058,0.283-0.085l-0.002,0.007l-0.258,0.104l0.002-0.022L20.76,19.935 M17.71,14.665
		c0.067-0.102,0.474,0.507,0.541,0.438c0.076-0.051-0.155-0.332-0.39-0.584c0.293,0.071,2.099,0.508,3.188,0.601
		c0.27,0.016,0.592,0.013,0.934,0.012c1.192-0.01,2.68-0.017,3.67,0.644c0.608,0.42,1.259,1.205,1.89,1.964
		c0.363,0.438,0.738,0.892,1.099,1.265c0.472,0.504,1.019,0.784,1.454,0.784c0.195,0,0.369-0.057,0.502-0.175
		c0.472-0.419,0.385-1.568-1.273-3.537c-0.863-1.024-0.836-2.226-0.426-2.963c0.281-0.506,0.73-0.766,1.197-0.698
		c0.786,0.118,0.757,0.465,0.727,0.833c-0.016,0.204-0.033,0.414,0.138,0.535c0.11,0.072,0.193,0.195,0.257,0.332
		c-0.067-0.017-0.159-0.025-0.259-0.059c-0.203-0.068-0.304-0.371-0.304-0.371l0.033,0.135c0.034,0.168,0.236,0.507,0.305,0.574
		c0.067,0.102-0.102,0.236-0.102,0.236s-0.033-0.067-0.169-0.271c-0.169-0.168-0.337-0.642-0.337-0.642s-0.068,0.102,0,0.305
		c0.018,0.057,0.039,0.124,0.061,0.191l-0.091,0.045l-0.031,0.047c-0.015-0.066-0.035-0.139-0.064-0.22
		c-0.04-0.118-0.085-0.21-0.121-0.283c-0.091-0.186-0.118-0.242,0.039-0.46c0.166-0.247,0.108-0.436,0-0.531
		c-0.16-0.139-0.445-0.105-0.647,0.075c-0.166,0.147-0.439,0.616-0.462,1.243c-0.017,0.463,0.101,1.156,0.759,1.832
		c1.86,1.935,1.817,3.371,1.215,4.014c-0.529,0.564-1.448,0.552-2.137-0.028c-0.459-0.384-0.901-0.928-1.291-1.407
		c-0.391-0.483-0.738-0.908-1.049-1.112c-0.17-0.148-0.442-0.214-0.608-0.297c-0.169-0.101-0.337-0.405-0.573-0.405
		c-0.237,0-0.439,0.371-0.439,0.574c0.236,0.068,0.473-0.067,0.744,0c0.337,0.068,0.472,0.102,0.675,0.338l0.065-0.021
		c0.11,0.071,0.236,0.189,0.366,0.327l-0.007,0.011c0,0-0.008,0.049-0.017,0.108c-0.243,0.271-0.894,0.989-1.35,1.474
		c-0.315,0.333-0.3,0.369-0.287,0.4l0.051,0.03c0.059,0,0.198-0.093,0.249-0.13l0.924-0.434c-0.219,0.281-0.666,0.89-0.609,1.119
		c0.016,0.047,0.054,0.075,0.106,0.075c0.166,0,0.526-0.275,0.729-0.443c-0.102,0.23-0.226,0.573-0.109,0.659l0.049,0.015
		c0.121,0,0.361-0.235,0.467-0.347c0.105,0.244,0.218,0.578,0.179,0.656v0.067l0.041,0.021c0.068,0,0.31-0.227,0.499-0.416
		l0.01-0.021c0.263,0.207,0.539,0.403,0.796,0.581c0.422,0.294,0.819,0.57,0.881,0.739c0.046,0.113,0.009,0.193-0.073,0.348
		c-0.085,0.16-0.19,0.359-0.171,0.656c0,0.51,0.066,0.668,0.08,0.695l0.103,0.063l0.051-0.011c0.059-0.027,0.083-0.097,0.059-0.154
		c0,0-0.058-0.139-0.058-0.601c-0.011-0.163,0.025-0.286,0.073-0.395c0.038,0.133,0.099,0.387,0.099,0.673
		c0,0.248,0.151,0.464,0.286,0.655c0.175,0.247,0.275,0.409,0.196,0.581c-0.06,0.135-0.165,0.195-0.284,0.266
		c-0.105,0.061-0.225,0.129-0.314,0.257c-0.124,0.186-0.645,0.704-1.147,0.83c-0.556,0.14-0.67-0.089-0.737-0.226l-0.009-0.018
		c-0.021-0.044-0.066-0.055-0.111-0.049l0.568-0.302c0.058-0.03,0.079-0.102,0.049-0.159c-0.03-0.057-0.102-0.078-0.159-0.048
		l-0.442,0.235c-0.004-0.054,0.003-0.12,0.037-0.19c0.077-0.159,0.312-0.376,0.991-0.502c0.084-0.017,0.142-0.081,0.157-0.177
		c0.071-0.454-0.889-2.018-1.574-2.405c-0.194-0.114-0.448-0.219-0.742-0.34c-0.612-0.252-1.391-0.575-1.994-1.165l-0.018-0.037
		l-0.03-0.01c-0.196-0.201-0.373-0.431-0.518-0.699c-0.834-1.6-2.046-1.617-2.098-1.617c-0.064,0-0.116,0.052-0.116,0.116
		C21.547,18.446,21.6,18.5,21.664,18.5c0.035,0,0.65,0.022,1.279,0.649c-0.104,0.018-0.663,0.12-1.469,0.336l0.189-0.663
		l-0.406,0.101v0.622c-0.239,0.066-0.496,0.143-0.769,0.228l0.195-0.646l-0.304,0.136l-0.098,0.578
		c-0.211,0.069-0.429,0.144-0.651,0.225l0.241-0.635l-0.404,0.203L19.4,20.14h0.027l-0.069,0.025
		c-0.193,0.073-0.382,0.127-0.568,0.171l0.238-0.534l-0.405,0.067l-0.18,0.537c-0.168,0.027-0.332,0.048-0.486,0.059l0.294-0.527
		l-0.372-0.034l-0.21,0.573c-0.308,0.003-0.563-0.022-0.751-0.05l0.15-0.017l0.439-0.575l-0.371-0.101l-0.353,0.671
		c-0.119-0.021-0.188-0.04-0.19-0.04l-0.089,0.01c-0.028-0.099-0.064-0.201-0.104-0.305l0.262-0.438l-0.27-0.135l-0.128,0.255
		c-0.201-0.44-0.431-0.828-0.447-0.856c-0.033-0.056-0.104-0.074-0.161-0.041c-0.055,0.033-0.073,0.105-0.04,0.161
		c0.007,0.013,0.727,1.229,0.727,1.765c0,0.214-0.039,0.479-0.081,0.76c-0.068,0.463-0.139,0.942-0.051,1.297
		c0.029,0.116,0.07,0.245,0.113,0.381c0.143,0.449,0.32,1.008,0.061,1.224c-0.05,0.042-0.057,0.116-0.015,0.165l0.09,0.043
		l0.075-0.027c0.381-0.317,0.176-0.959,0.013-1.476c-0.042-0.13-0.081-0.255-0.109-0.366c-0.077-0.31-0.01-0.766,0.056-1.206
		c0.009-0.062,0.016-0.118,0.024-0.179l0.005,0.008l0.02,0.016c0.156,0.124,0.268,0.213,0.296,0.354
		c0.011,0.049,0.003,0.096-0.005,0.142c-0.015,0.091-0.034,0.216,0.144,0.275c0.172,0.068,0.274,0.103,0.274,0.103l0.02,0.003
		l0.057-0.042l-0.038-0.077c0,0-0.101-0.033-0.27-0.101c-0.083-0.028-0.081-0.05-0.065-0.142v-0.003l0.014,0.018l0.084-0.02
		c0.054-0.088,0.114-0.182,0.164-0.253l0.033,0.006c0.049,0.129,0.14,0.287,0.269,0.339c0.171,0.068,0.273,0.103,0.273,0.103
		l0.019,0.003l0.059-0.041l-0.038-0.078c0,0-0.097-0.033-0.256-0.096l0.082-0.033c0.007-0.007,0.043-0.044,0.109-0.141l0.038,0.015
		c0.037,0.016,0.084,0.034,0.13,0.049c0.212,0.091,0.367,0.244,0.367,0.244l0.085,0.036l0.083-0.035
		c0.046-0.045,0.046-0.119,0-0.165c-0.007-0.007-0.124-0.12-0.304-0.224c0.035-0.051,0.018-0.152,0.018-0.336
		c0.072,0,0.135,0.02,0.192,0.043c0.183,0.134,0.435,0.303,0.449,0.312l0.034,0.01l0.04-0.014l0.016-0.072
		c-0.032-0.069-0.063-0.142-0.092-0.211h0.002c0.035,0,0.104,0.018,0.174,0.025c0.073,0.05,0.152,0.1,0.243,0.132
		c0.032,0.014,0.121,0.05,0.172-0.005c0.058-0.063,0.005-0.167-0.074-0.324c-0.021-0.043-0.046-0.093-0.067-0.143l0.086-0.097
		l0.044,0.063c0.094,0.138,0.175,0.256,0.278,0.188c0.087-0.088,0.021-0.274-0.05-0.411c0.194,0.062,0.415,0.135,0.452,0.152
		l0.092-0.034c0.013-0.029,0.028-0.069-0.178-0.31l0.064-0.114l0.036,0.023c0.163,0.033,0.361,0.1,0.361,0.1l0.022,0.003
		l0.048-0.022l0.004-0.07l-0.143-0.236l0.356,0.025l0.046-0.017l0.02-0.044v-0.196l0.3-0.119l0.036-0.037l0.033-0.103V19.81
		c0.047-0.013,0.091-0.024,0.137-0.038l-0.003,0.029c0.023,0.083,0.559,1.947,0.969,2.584c-0.42,0.379-0.628,0.944-0.77,1.326
		c-0.058,0.156-0.107,0.291-0.142,0.34c-0.071,0.066-0.521,0.094-0.82,0.112c-0.467,0.029-0.772,0.058-0.955,0.146
		c-0.242-0.07-0.436-0.047-0.673-0.014c-0.173,0.024-0.368,0.053-0.646,0.053c-0.384,0.019-0.611-0.064-0.813-0.138
		c-0.142-0.051-0.275-0.1-0.431-0.1c-0.064,0-0.117,0.053-0.117,0.117c0,0.047,0.031,0.079,0.069,0.098
		c-0.107,0.038-0.21,0.111-0.275,0.201l-0.041-0.007c-0.062,0.015-0.103,0.078-0.088,0.141c0.035,0.147-0.004,0.296-0.113,0.44
		c-0.22,0.291-0.684,0.51-1.135,0.531c-0.313,0.027-0.422-0.041-0.459-0.085c-0.047-0.058-0.026-0.133-0.026-0.133
		c0.018-0.06-0.011-0.121-0.065-0.146c-0.055-0.023-0.119-0.001-0.148,0.051l-0.09,0.075c-0.024,0-0.076-0.03-0.119-0.086
		c-0.066-0.093-0.092-0.168-0.077-0.225c0.034-0.119,0.262-0.216,0.464-0.3c0.201-0.086,0.41-0.173,0.523-0.314
		c0.287-0.361-0.535-1.913-0.903-2.564c-0.031-0.056-0.104-0.076-0.16-0.044c-0.056,0.032-0.075,0.104-0.044,0.16
		c0.404,0.716,0.722,1.408,0.862,1.849c-0.175-0.025-0.534,0.003-1.165-0.029c-0.631,0-0.932-0.207-1.334-0.64
		c-0.342-0.37-0.766-0.575-0.924-0.644c-0.002-0.142-0.006-0.281-0.006-0.425c0-0.339,0.066-0.743,0.033-1.082l-0.068-0.438
		c-0.034-0.203-0.169-0.271-0.371-0.338c-0.034-0.034-0.068-0.034-0.136-0.068l-0.067-0.033c-0.029-0.015-0.176-0.074-0.354-0.137
		l0.015-0.027c0.06-0.118,0.079-0.158,0.246-0.158c0.549-0.037,0.714-0.264,0.73-0.289l0.02-0.062
		c0.274,0.338,0.531,0.684,0.593,1.113c0.034,0.438,0.271,1.216,0.474,1.25c0.202,0.068-0.102-0.845-0.102-0.845
		s0.304,0.71,0.439,0.776c0.136,0.034-0.202-0.811-0.136-0.743c0.103,0.068,0.237,0.068,0.237,0.339
		c0,0.236,0.271,0.878,0.439,0.945c0.101,0.041,0.081-0.262,0.049-0.517c-0.048-0.174-0.049-0.327-0.049-0.327
		s0.027,0.152,0.049,0.327c0.02,0.071,0.047,0.145,0.086,0.213c0.136,0.203,0.304,0.507,0.439,0.474c0.17,0,0-0.237-0.034-0.574
		c-0.033-0.339,0.204-0.271-0.033-1.049c-0.203-0.776-0.777-1.555-1.081-2.095c-0.271-0.541-0.103-1.487-0.103-1.487
		s0.203,0.406,0.372,0.574c0.17,0.17,0.136,0.305,0.203,0.372c0.067,0.102,0.608,0.338,0.473,0.237
		c-0.135-0.068-0.135-0.439-0.135-0.777s-0.541-0.643-0.541-0.643s0.236,0.067,0.71,0.102c0.44,0.033,0.912,0.541,0.71,0.236
		c-0.17-0.305-0.405-1.115-0.405-1.115s0.136,0.236,0.371,0.474c0.271,0.236,0.508,0.438,0.946,0.405
		c0.405-0.034-0.271-0.236-0.438-0.372c-0.17-0.135-0.137-0.743-0.137-0.743l0.305,0.507c0,0,0.271,0.304,0.541,0.304
		c0.305,0.034,0.034-0.236-0.066-0.372c-0.136-0.101-0.136-0.675-0.136-0.675s0.54,0.236,1.013,0.135
		c0.439-0.135-0.033-0.236-0.439-0.304c-0.438-0.067-0.371-0.879-0.371-0.879s0.203,0.101,0.305,0.202s0.135,0.169,0.304,0.372
		c0.136,0.203,0.27,0.135,0.878,0.203c0.575,0.034,0.338,0.169,0.542,0.169c0.202,0.033-0.034-0.305-0.034-0.305
		s0.034-0.067,0.101-0.102c0.068,0,0-0.067-0.033-0.203C17.947,15.003,17.609,14.801,17.71,14.665 M17.733,14.375l0.002,0.012
		l-0.021-0.021L17.733,14.375 M18.056,10.552c-0.048-0.052-0.093-0.091-0.134-0.122c0.111-0.029,0.225-0.066,0.338-0.106
		C18.173,10.394,18.1,10.472,18.056,10.552 M17.287,10.257c-0.5-0.067-0.824-0.279-0.846-0.552c-0.02-0.252,0.219-0.494,0.594-0.605
		c0.889-0.275,1.73-0.41,2.576-0.41c1.248,0,2.34,0.289,3.495,0.595C23.84,9.479,24.6,9.68,25.431,9.812
		c0.507,0.087,1.048,0.13,1.61,0.13c1.181,0,2.273-0.191,3.07-0.331c0.494-0.087,0.887-0.156,1.145-0.156
		c0.168,0,0.256,0.028,0.262,0.084c-0.03,0.309-2.616,0.936-5.547,0.936c-1.378,0-2.562-0.145-3.426-0.416
		c-0.873-0.279-1.625-0.415-2.301-0.415c-0.835,0-1.405,0.214-1.863,0.386C17.99,10.176,17.646,10.295,17.287,10.257 M29.914,10.376
		c0,0-0.619,0.894-2.469,0.894h-0.098c-3.755-0.146-4.693-0.041-4.893-0.005c-0.088-0.21-0.328-0.398-0.534-0.433
		c-0.064-0.013-0.125,0.032-0.136,0.096c-0.01,0.064,0.033,0.125,0.097,0.135c0.165,0.028,0.375,0.229,0.375,0.358
		c0,0.125-0.097,0.271-0.182,0.399c-0.024,0.04-0.05,0.078-0.079,0.129c-0.078,0.18-0.057,0.277-0.035,0.381
		c0.013,0.057,0.025,0.115,0.025,0.206c0,0.094-0.043,0.132-0.141,0.207c-0.055,0.042-0.117,0.09-0.176,0.164
		c-0.129,0.181-0.103,0.304-0.084,0.395c0.012,0.055,0.019,0.089,0.008,0.128c-0.023,0.045-0.125,0.116-0.207,0.174
		c-0.098,0.066-0.197,0.136-0.244,0.201c-0.032,0.032-0.088,0.076-0.148,0.123c-0.178,0.143-0.289,0.235-0.324,0.346
		c-0.021,0.122,0.02,0.238,0.058,0.352c0.027,0.081,0.045,0.157,0.048,0.229c-0.43-0.053-0.93-0.143-1.393-0.236
		c0.07-0.041,0.076-0.118-0.051-0.258c-0.033,0-0.642-0.372-0.541-0.405c0.17,0,1.116,0.169,1.116-0.067
		c0-0.136-0.203-0.169-0.304-0.202c-0.135-0.034-0.305,0.033-0.439-0.034c0,0-0.237-0.136-0.136-0.169
		c0.204,0,1.047,0.236,0.912-0.237c-0.304-0.067-0.844,0-1.081-0.236c0.067-0.101,0.541-0.033,0.676-0.033
		c0.033,0,0.879-0.034,0.777-0.136c-0.101-0.135-1.115-0.371-1.115-0.27c0-0.271,0.811-0.102,0.743-0.474
		c-0.067-0.271-0.608-0.067-0.776-0.236c0.168,0,1.184-0.136,0.946-0.541c-0.035-0.068-0.271-0.102-0.372-0.102
		c-0.27-0.067-0.541-0.067-0.846-0.101c0.169-0.103,1.386-0.136,1.352-0.305c-0.032-0.034-0.337-0.17-0.404-0.203
		c-0.271-0.202-0.473-0.405-0.812-0.474l-0.088-0.052c0.356-0.112,0.765-0.205,1.304-0.205c0.651,0,1.381,0.131,2.229,0.403
		c0.887,0.279,2.097,0.427,3.497,0.427c1.398,0,2.89-0.152,4.006-0.375L29.914,10.376 M22.214,12.308
		c0.423-0.163,1.206-0.126,2.197-0.079c0.955,0.046,2.144,0.103,3.379-0.015c0.052-0.004,0.097-0.011,0.145-0.017
		c-0.003,0.025-0.065,0.563-1.407,0.593c-1.11,0.03-1.917-0.013-2.567-0.046c-0.756-0.038-1.284-0.064-1.816,0.038
		c0.045-0.062,0.077-0.14,0.077-0.246c0-0.1-0.013-0.168-0.024-0.226L22.214,12.308 M27.277,25.115l-0.005,0.017
		c-0.021-0.045-0.06-0.08-0.107-0.073c-0.534,0.039-0.991-0.055-1.437-0.145c-0.322-0.064-0.625-0.127-0.921-0.127
		c-0.307,0-0.589,0.052-0.888,0.107c-0.35,0.063-0.711,0.13-1.174,0.13l-0.029,0.012l-0.072,0.004
		c-0.053,0.006-0.094,0.02-0.137,0.032c0.011-0.037,0.017-0.076,0.017-0.123c0.029-0.315,0.235-0.502,0.851-1.054l0.056-0.05
		c0.634-0.545,0.596-0.816,0.448-1.379c-0.022-0.088-0.048-0.184-0.07-0.287c-0.097-0.529,0.264-1.09,0.431-1.315
		c0.618,0.575,1.384,0.896,1.993,1.146c0.285,0.118,0.532,0.219,0.714,0.326c0.7,0.396,1.49,1.894,1.462,2.153
		C27.803,24.607,27.422,24.817,27.277,25.115 M23.08,19.318l0.006-0.023l0.013,0.014L23.08,19.318z M21.642,25.232
		c-0.086,0.009-0.175,0.018-0.263,0.029c-0.177,0.023-0.332,0.08-0.482,0.136c-0.311,0.113-0.602,0.22-1.091,0.071
		c-0.173-0.053-0.221-0.107-0.223-0.129c-0.006-0.068,0.192-0.229,0.407-0.328c0.06-0.027,0.085-0.098,0.058-0.156
		s-0.098-0.084-0.156-0.057c-0.075,0.035-0.247,0.124-0.379,0.244l0.005-0.014c0,0-0.024-0.322,0.156-0.504
		c0.106-0.08,0.561-0.107,0.894-0.128c0.554-0.034,0.872-0.06,0.99-0.202c0.06-0.083,0.111-0.224,0.178-0.402
		c0.14-0.383,0.354-0.961,0.779-1.297l0.044-0.079l-0.025-0.086c-0.386-0.483-0.986-2.574-0.992-2.596l-0.017-0.021
		c0.749-0.201,1.282-0.303,1.433-0.33l-0.173,0.093l-0.03,0.069l0.06,0.046c0,0,0.185,0.001,0.298,0.135
		c0.084,0.099,0.111,0.245,0.08,0.438c-0.1,0.669-0.167,1.347-0.169,1.354l0.051,0.066l0.011,0.001l0.06-0.046
		c0.002-0.007,0.165-0.652,0.438-0.804c0.233-0.104,0.344-0.146,0.382-0.16l0.104,0.123c-0.178,0.231-0.609,0.876-0.49,1.528
		c0.025,0.11,0.051,0.209,0.074,0.299c0.041,0.157,0.07,0.279,0.08,0.391c-0.178,0.052-0.646,0.198-0.834,0.384
		c-0.046,0.046-0.046,0.12,0,0.166l0.084,0.035l0.083-0.035c0.112-0.113,0.417-0.227,0.629-0.293
		c-0.057,0.143-0.179,0.289-0.419,0.495l-0.058,0.052c-0.647,0.582-0.89,0.801-0.928,1.218
		C22.29,25.147,22.103,25.187,21.642,25.232 M11.391,21.627v3.616l-0.135-0.136l-0.102-0.067v-0.034v-3.447
		c-0.034-0.033-0.034-0.102-0.034-0.168v-0.034v-0.136c0-0.101-0.067-0.439,0-0.507l0.102-0.033h0.034
		C11.527,20.815,11.391,21.424,11.391,21.627 M11.12,25.412c-0.438-0.102-0.879-0.102-1.317-0.102H9.498
		c-0.405-0.034-0.879-0.034-1.216,0.135c-0.102,0.067-0.236,0.102-0.372,0.067c-0.068,0-0.102-0.033-0.102-0.067
		c0.033-0.067,0.439-0.236,0.507-0.271c0.304-0.101,0.642-0.236,0.946-0.202h0.236c0.507,0.067,1.15,0.135,1.386,0.169l0.034,0.067
		l0.202,0.169l0.034,0.034H11.12z M7.504,25.513c-0.135,0.068-0.236-0.033-0.337-0.067c-0.136-0.033-0.271-0.033-0.372-0.067
		c-0.17-0.034-0.338-0.034-0.507-0.034s-0.338,0.034-0.507,0.034c-0.203,0.034-0.271,0.034-0.473,0.102
		c-0.103,0.033-0.203,0.067-0.305,0.067v-0.034c0-0.135,0.305-0.236,0.404-0.27c0.17-0.102,0.407-0.203,0.609-0.203
		c0.102,0,0.169,0.034,0.271,0.034c0.236,0,0.507,0.067,0.777,0.135C7.132,25.243,7.774,25.378,7.504,25.513 M31.34,14.585
		l0.008,0.08c0,0.087,0.02,0.156,0.045,0.218l-0.062-0.116C31.33,14.727,31.335,14.659,31.34,14.585 M2.503,19.295l1.082-1.082
		l0.033-0.101l0.101,0.067c0.068,0.033,0.103,0.102,0.271,0.102c0.136-0.034,0.271-0.068,0.339-0.102
		c0.169-0.067,0.202-0.067,0.27,0.033l0.304,0.339c0.237,0.405,0.474,0.845,0.677,1.048l0.414,0.438
		c-0.659,0.061-1.124,0.035-1.124,0.035L4.768,20.14L4.7,20.241c0,0,0.168,1.588,0.101,2.399c-0.067,0.777-0.136,1.555-0.136,2.332
		c0,0.304-0.1,1.047,0.271,0.945c0.438-0.135,0.879-0.236,1.352-0.236c0.304-0.033,0.643,0.034,0.979,0.136
		c0.203,0.067,0.271,0.271,0.474,0.271c0.202-0.034,0.507-0.271,0.71-0.305c0.202-0.034,0.506,0,0.743,0h0.304
		c0.406,0,0.878,0.068,1.217,0.068c0.102-0.034,0.271-0.034,0.405-0.034c0.067-0.034,0.102-0.034,0.136-0.034
		c0.202-0.067,0.406-0.135,0.439-0.338c0.068-0.338,0-0.743,0-1.115c0-0.512-0.013-1.01-0.023-1.511
		c0.182,0.089,0.493,0.267,0.748,0.543c0.43,0.463,0.796,0.714,1.498,0.714h0.001c0.324,0.017,0.593,0.017,0.788,0.017
		c0.178,0,0.319,0,0.372,0.014l0.028,0.003l0.044-0.015c0.022,0.113,0.027,0.196,0.001,0.229c-0.076,0.095-0.256,0.17-0.432,0.244
		c-0.262,0.11-0.533,0.225-0.598,0.453c-0.036,0.129,0.002,0.271,0.115,0.429c0.1,0.128,0.21,0.187,0.324,0.18l0.08-0.019
		l0.05,0.083c0.097,0.119,0.268,0.18,0.506,0.18c0.048,0,0.099-0.003,0.151-0.007c0.127-0.007,0.254-0.027,0.377-0.059
		c0.252-0.001,0.559-0.133,0.801-0.16c0.203-0.034,0.439-0.034,0.643-0.067c0.135-0.034,0.439-0.136,0.507-0.237
		c-0.067,0-0.169-0.067-0.237-0.067c0.068-0.033,0.135-0.067,0.203-0.102c-0.068-0.033-0.168-0.033-0.27-0.033
		c0.201,0,0.54-0.034,0.675-0.136c-0.135-0.067-0.303-0.135-0.474-0.102c0.136-0.102,0.305-0.066,0.44-0.135
		c-0.169-0.033-0.338-0.033-0.474-0.169c-0.078-0.047-0.127-0.116-0.178-0.176l0.021,0.007c0.191,0.069,0.425,0.154,0.781,0.154
		l0.118-0.003c0.288,0,0.501-0.03,0.674-0.055c0.175-0.024,0.306-0.042,0.446-0.022c-0.143,0.25-0.122,0.53-0.121,0.545
		c0.006,0.061,0.057,0.106,0.117,0.106l0.01-0.001c-0.041,0.062-0.067,0.129-0.061,0.2c0.014,0.223,0.295,0.309,0.388,0.337
		c0.196,0.06,0.366,0.082,0.52,0.082c0.21,0,0.386-0.044,0.547-0.097c0.581-0.007,1.164-0.025,1.773,0.003
		c0.405,0,0.777,0.034,1.182,0.102c0.306,0.068,0.71,0.271,1.049,0.271c-0.236-0.202-0.473-0.236-0.743-0.271
		c0.371,0,0.743,0.102,1.115,0.102c-0.136-0.236-0.508-0.304-0.777-0.271c0.202-0.033,0.371-0.067,0.573-0.067
		c-0.168-0.135-0.371-0.169-0.573-0.169c0.135,0,0.27-0.034,0.371-0.034c-0.257-0.089-0.523-0.163-0.795-0.222
		c0.282-0.052,0.549-0.1,0.829-0.1c0.272,0,0.565,0.059,0.875,0.121c0.369,0.075,0.78,0.157,1.237,0.157
		c0.086,0,0.174-0.002,0.262-0.009l0.052-0.025c-0.039,0.202,0.035,0.36,0.038,0.368l0.069,0.058l0.035,0.006l0.013-0.003
		c-0.051,0.032-0.069,0.102-0.043,0.156c0.059,0.119,0.197,0.398,0.646,0.398l0.051-0.003c0.384,0.2,1.166,0.039,1.496,0.009
		c0.136-0.033,0.574-0.135,0.676-0.066c-0.136-0.068-0.304-0.102-0.406-0.17h0.372c-0.067-0.066-0.169-0.135-0.237-0.168
		c0.204-0.034,0.441-0.034,0.575-0.17c-0.067-0.101-0.202-0.169-0.338-0.169c0.204-0.101,0.507-0.169,0.136-0.371
		c-0.134-0.075-0.26-0.097-0.379-0.091c0.119-0.072,0.239-0.162,0.316-0.334c0.141-0.305-0.049-0.574-0.218-0.812
		c-0.126-0.178-0.244-0.346-0.244-0.52c0-0.456-0.137-0.836-0.143-0.852l-0.069-0.067c0.062-0.13,0.104-0.269,0.035-0.44
		c-0.086-0.235-0.455-0.492-0.967-0.848c-0.394-0.273-0.84-0.584-1.191-0.92c-0.582-0.557-0.513-1.673-0.462-2.094
		c0.141,0.162,0.286,0.339,0.437,0.524c0.396,0.488,0.845,1.042,1.322,1.439c0.395,0.333,0.857,0.499,1.299,0.499
		c0.438,0,0.854-0.163,1.161-0.49c0.672-0.718,0.756-2.284-1.22-4.337c-0.601-0.617-0.708-1.243-0.692-1.66
		c0.021-0.575,0.267-0.974,0.383-1.077c0.136-0.119,0.286-0.118,0.338-0.072c0.051,0.044,0.013,0.145-0.038,0.221
		c-0.227,0.312-0.169,0.468-0.057,0.696c0.033,0.069,0.073,0.149,0.109,0.257c0.113,0.312,0.068,0.457,0.068,0.457
		c-0.022,0.056,0.001,0.119,0.053,0.146c0.054,0.029,0.117,0.014,0.152-0.035l0.205-0.292c0.022,0.073,0.037,0.123,0.037,0.123
		c0.033,0.169,0.068,0.203-0.034,0.405c-0.067,0.203,0,0.203,0.034,0.338c0.033,0.136,0.371,0.305,0.371,0.305
		s-0.033-0.271-0.066-0.474c0-0.192,0.302-0.263,0.332-0.269l0.005-0.002l-0.005,0.002c0.002,0.007,0.011,0.023,0.039,0.066
		c0.102,0.135,0.202,0.202,0.372,0.271l0.034,0.019l0.063,0.059c0.062,0.022,0.128-0.012,0.149-0.074
		c0.036-0.111-0.047-0.188-0.107-0.243c-0.074-0.067-0.158-0.146-0.158-0.301c0-0.302-0.131-0.838-0.489-1.076
		c-0.056-0.038-0.05-0.147-0.036-0.322c0.031-0.372,0.077-0.933-0.926-1.083c-0.568-0.082-1.107,0.222-1.438,0.815
		c-0.449,0.808-0.483,2.119,0.452,3.229c1.452,1.725,1.697,2.854,1.298,3.21c-0.287,0.256-0.976,0.104-1.631-0.596
		c-0.354-0.367-0.728-0.817-1.089-1.252c-0.64-0.771-1.302-1.569-1.938-2.009c-0.844-0.562-1.994-0.668-3.05-0.683
		c0.403-0.121,0.492-0.426,0.496-0.441c0.012-0.048-0.013-0.089-0.05-0.115c0.057,0,0.111,0,0.17,0.001
		c1.26,0.037,1.424-0.251,1.438-0.374c0.007-0.064-0.037-0.133-0.101-0.141c-0.067-0.01-0.121,0.029-0.127,0.094
		c0,0-0.135,0.214-1.203,0.187c-1.249-0.034-2.274,0.101-2.284,0.103c-0.063,0.009-0.109,0.067-0.1,0.132
		c0.007,0.06,0.058,0.102,0.115,0.102l0.016-0.001c0,0,0.858-0.11,1.943-0.104l-0.045,0.059c-0.004,0.013-0.096,0.318-0.623,0.318
		c-0.616-0.033-1.286,0.098-1.313,0.104l-0.051,0.034c-0.003-0.109-0.035-0.212-0.067-0.305c-0.03-0.09-0.059-0.175-0.053-0.217
		c0.021-0.043,0.166-0.159,0.244-0.222c0.068-0.054,0.131-0.104,0.179-0.153c0.035-0.048,0.124-0.108,0.201-0.161l0.094-0.071
		l0.085,0.043l0.02-0.002c0,0,0.627-0.097,2.508-0.032c1.018,0.056,1.66-0.049,1.913-0.305c0.104-0.107,0.104-0.207,0.103-0.226
		c-0.004-0.065-0.065-0.117-0.124-0.114c-0.065,0.004-0.114,0.055-0.108,0.119c0,0-0.104,0.38-1.772,0.291
		c-1.459-0.051-2.163-0.007-2.428,0.02v-0.001c0.038-0.114,0.02-0.2,0.007-0.265c-0.016-0.073-0.023-0.113,0.04-0.205l0.031-0.028
		l0.082,0.038l0.028-0.004c0.57-0.146,1.119-0.118,1.95-0.076c0.654,0.034,1.468,0.076,2.585,0.047
		c1.617-0.036,1.637-0.795,1.637-0.827l-0.014-0.033c1.045-0.192,1.093-0.778,1.095-0.806c0.003-0.064-0.045-0.117-0.109-0.122
		c-0.064-0.004-0.12,0.044-0.125,0.107c0,0-0.062,0.544-1.247,0.635c-1.221,0.116-2.4,0.06-3.348,0.015
		c-0.971-0.046-1.744-0.08-2.221,0.072l0.004-0.011l0.066-0.106c0.09-0.135,0.184-0.286,0.209-0.451
		c0.063-0.016,0.774-0.152,4.859,0.006l0.105,0.001c1.986,0,2.638-0.958,2.664-1c0.036-0.054,0.021-0.126-0.033-0.162l-0.074-0.015
		c0.846-0.17,1.472-0.382,1.668-0.598c0.062-0.068,0.089-0.14,0.081-0.214c-0.02-0.196-0.187-0.296-0.495-0.296
		c-0.279,0-0.679,0.07-1.186,0.159c-0.789,0.139-1.869,0.328-3.029,0.328c-0.549,0-1.077-0.043-1.572-0.127
		c-0.819-0.132-1.574-0.331-2.303-0.523c-1.171-0.311-2.276-0.603-3.555-0.603c-0.869,0-1.734,0.137-2.644,0.42
		c-0.482,0.143-0.788,0.484-0.761,0.848c0.031,0.396,0.423,0.683,1.051,0.768c0.157,0.017,0.303,0.004,0.446-0.018l0.006,0.007
		c0.011,0.005,0.164,0.081,0.31,0.277c0.067,0.194,0.165,0.298,0.198,0.528c0,0.236-0.034,0.406-0.136,0.608
		c-0.169,0.372-0.473,0.541-0.777,0.777c-0.068,0.04-0.183,0.097-0.307,0.167l-0.062,0.029l-0.017,0.016
		c-0.263,0.16-0.545,0.387-0.588,0.69c-0.049-0.02-0.097-0.039-0.143-0.058c-0.507-0.202-0.303-0.574-0.642-0.845
		c-0.183-0.146-0.402-0.303-0.611-0.469c0.012-0.112,0.019-0.227,0.019-0.342c0-2.021-1.721-3.666-3.835-3.666
		c-2.095,0-3.8,1.645-3.8,3.666c0,1.863,1.476,3.401,3.369,3.606l0.014,0.104c-0.304-0.225-0.701-0.096-1.035-0.128
		c-0.474-0.034-1.082-0.169-1.521-0.372c-0.439-0.236-0.879-0.676-1.216-1.047c-0.103-0.102-0.339-0.575-0.507-0.541l-0.061,0.024
		c0.002-0.107,0.002-0.213,0.008-0.323c0.047-0.846-0.18-1.477-0.621-1.727c-0.281-0.16-0.618-0.142-0.902,0.049
		c-0.323,0.217-0.634,0.722-0.535,1.486c0.47,3.35,3.205,6.611,3.622,7.094l-0.06,0.021c-0.134-0.136-0.438-0.271-1.182-0.136
		c-0.115,0-0.23,0.021-0.348,0.029c-0.033-0.037-0.08-0.086-0.159-0.165L5.815,19.43c-0.204-0.203-0.44-0.642-0.643-1.014
		l-0.271-0.642C4.7,17.47,4.395,17.673,4.227,17.74c-0.068,0.034-0.169,0.068-0.237,0.068c-0.102,0-0.135-0.034-0.202-0.068
		c-0.136-0.067-0.305-0.169-0.473,0.034l-1.014,1.316c-0.014,0.032-0.048,0.124-0.001,0.171C2.367,19.295,2.571,19.227,2.503,19.295
		"/>
	<path fill="#FFFFFF" d="M1.987,3.073c0.507,0,0.507,0.067,0.981,0.067c0.506,0,0.506-0.033,1.047-0.033
		c0.439,0,0.439-0.034,0.913-0.034c0.472,0,0.472,0.034,0.945,0.034h0.913c0.101,0,0.27-0.102,0.27-0.203s-0.169-0.169-0.27-0.169
		c-0.508,0-0.508-0.034-0.98-0.034C5.3,2.701,5.3,2.668,4.793,2.668H3.846H2.9c-0.439-0.033-0.439,0-0.913,0
		c-0.102,0-0.168,0.135-0.168,0.236S1.886,3.073,1.987,3.073"/>
	<path fill="#FFFFFF" d="M5.435,4.154C4.961,4.121,4.961,4.053,4.522,4.053c-0.102,0-0.169,0.136-0.169,0.271
		c0,0.102,0.067,0.203,0.169,0.203c0.507,0,0.507-0.033,1.014-0.033S6.043,4.56,6.55,4.56h1.014c0.474,0,0.474-0.066,0.979-0.066
		c0.508,0,0.508,0.066,0.98,0.066h0.913c0.135,0,0.236-0.135,0.236-0.236c0-0.135-0.102-0.271-0.236-0.271
		c-0.507,0-0.507,0.035-0.98,0.035c-0.54,0-0.54,0.033-1.048,0.033c-0.506,0-0.506,0.033-0.979,0.033H6.415H5.435z"/>
	<path fill="#FFFFFF" d="M0.6,0.356v26.456c0,2.271,1.183,3.33,3.72,3.33c7.418,0,10.219,0.066,11.825,1.342
		c1.582-1.289,4.693-1.342,11.865-1.342c0.035,0.003,0.159,0.016,0.355,0.016c0.438,0,1.279-0.068,1.997-0.523
		c0.862-0.548,1.299-1.498,1.299-2.822V0.389L0.6,0.356z M16.151,32.102l-0.162-0.145c-1.452-1.291-4.133-1.357-11.67-1.357
		c-2.779,0-4.188-1.273-4.188-3.787V-0.102l32,0.033v26.881c0,1.489-0.51,2.567-1.512,3.205c-0.818,0.521-1.764,0.599-2.254,0.599
		c-0.237,0-0.384-0.018-0.384-0.018C20.723,30.6,17.71,30.652,16.31,31.953L16.151,32.102z"/>
	<polygon fill="#FFFFFF" points="23.084,22.229 23.145,22.168 23.145,21.897 23.084,21.836 23.022,21.897 23.022,22.168 	"/>
	<path fill="#FFFFFF" d="M15.683,21.086c0.135,0,0.237-0.777,0.237-0.777l-0.508-0.946C15.412,19.362,15.683,20.275,15.683,21.086"
		/>
	<path fill="#FFFFFF" d="M10.006,12.772c0.134,0.034,0.203-0.439,0.203-0.439s0.1,0.169,0.336,0.136
		c0.204-0.068-0.135-0.305-0.135-0.305s0.643-0.067,0.508-0.338c-0.102-0.305-0.946,0.102-0.946,0.102S9.837,12.739,10.006,12.772"
		/>
	<path fill="#FFFFFF" d="M10.749,13.719c0-0.068-0.068-0.068-0.102-0.102c-0.034-0.067-0.067-0.033-0.067-0.033v0.102h-0.068
		c-0.102,0.033-0.135,0.101-0.27,0.135c-0.136,0.066-0.169,0-0.236,0c-0.059,0-0.212-0.023-0.298-0.031
		c0.001-0.075-0.002-0.154-0.005-0.236c-0.004-0.079-0.009-0.159-0.009-0.239l-0.005-0.011c0.135-0.033,0.274-0.068,0.384-0.142
		l0.018-0.085l-0.085-0.017c-0.094,0.062-0.227,0.095-0.352,0.126c-0.154,0.03-0.156,0.031-0.239-0.106l-0.084-0.021l-0.021,0.084
		c0.082,0.136,0.138,0.181,0.232,0.181l0.029-0.005c0,0.081,0.004,0.162,0.009,0.239c0.003,0.081,0.006,0.156,0.005,0.228
		c-0.083-0.002-0.203-0.009-0.324-0.033c0,0,0.169,0.339,0.236,0.305c0.034-0.034,0.135,0,0.305,0
		c0.169,0.034,0.066,0.034,0.271,0.034c0.169,0,0.235-0.068,0.405-0.103c0.135-0.033,0.169-0.066,0.202-0.102
		c0.035,0.035,0.068,0.035,0.136,0.035C10.918,13.887,10.783,13.786,10.749,13.719"/>
	<path fill="#FFFFFF" d="M22.374,29.23c0,0-0.304-0.135-0.643-0.135c-0.202,0-0.439,0.135-0.607,0.102
		c-0.068-0.035-0.136,0-0.168,0.066c-0.035,0.103,0,0.17,0.1,0.203c0.202,0.067,0.474-0.101,0.71-0.101
		c0.338,0,0.643,0.134,0.677,0.134c0.067,0,0.135-0.101,0.135-0.168C22.543,29.264,22.475,29.197,22.374,29.23"/>
	<path fill="#FFFFFF" d="M9.869,28.926c-0.337-0.033-0.337-0.033-0.674-0.101c-0.306-0.067-0.339-0.102-0.644-0.067
		c-0.304,0.033-0.304,0.067-0.574,0.067c-0.102,0.034-0.169,0.067-0.169,0.169c0.035,0.067,0.101,0.102,0.169,0.102
		c0.338-0.034,0.338,0,0.676-0.034s0.271,0,0.575,0.068c0.304,0.033,0.304,0.033,0.607,0.101c0.067,0,0.136-0.067,0.136-0.135
		C10.006,29.027,9.938,28.96,9.869,28.926"/>
	<path fill="#FFFFFF" d="M8.35,28.318c0-0.068-0.033-0.203-0.102-0.203c-0.372-0.102-0.372-0.067-0.744-0.169
		c-0.338-0.067-0.338-0.067-0.709-0.135c-0.338-0.068-0.372,0-0.744,0.034c-0.371,0.066-0.371,0.066-0.742,0.101
		C4.97,28.014,4.97,27.98,4.632,28.048c-0.067,0-0.135,0.067-0.135,0.135c0,0.102,0.101,0.136,0.168,0.136
		c0.372-0.068,0.372-0.068,0.743-0.136c0.373-0.033,0.373-0.033,0.744-0.067c0.338-0.067,0.305-0.067,0.643,0
		c0.371,0.067,0.371,0.067,0.709,0.169c0.338,0.067,0.338,0.067,0.677,0.136C8.248,28.42,8.316,28.387,8.35,28.318"/>
	<path fill="#FFFFFF" d="M5.646,29.027c0.068,0,0.169-0.066,0.169-0.135c0-0.067-0.101-0.168-0.169-0.168
		c-0.372,0-0.372,0.033-0.71,0H4.228c-0.34,0-0.34,0-0.677,0.066c-0.304,0.068-0.304,0.102-0.643,0.135
		c-0.068,0.035-0.135,0.068-0.135,0.136c0.033,0.102,0.102,0.136,0.168,0.136c0.373-0.068,0.373-0.068,0.71-0.136
		c0.372-0.034,0.304-0.067,0.676-0.067h0.644C5.308,28.994,5.308,29.027,5.646,29.027"/>
	<path fill="#FFFFFF" d="M6.592,29.467c0-0.033-0.303-0.067-0.676-0.135c-0.203-0.033-0.541,0-0.743,0.034
		c-0.271,0.067-0.507,0.101-0.607,0.134c-0.068,0-0.136,0.103-0.136,0.17c0.033,0.067,0.101,0.102,0.202,0.102
		c0.067,0,0.338-0.034,0.677-0.102c0.201-0.033,0.404-0.102,0.607-0.067c0.338,0.067,0.608,0.135,0.643,0.135
		c0.066,0.034,0.168-0.033,0.168-0.101C6.727,29.534,6.693,29.467,6.592,29.467"/>
	<path fill="#FFFFFF" d="M12.776,27.846h0.744c0.405,0,0.371,0.101,0.743,0.168c0.371,0.068,0.371,0.034,0.777,0.102
		c0.338,0.068,0.338,0.102,0.677,0.169c0.066,0,0.134-0.067,0.168-0.136c0-0.066-0.034-0.135-0.135-0.135
		c-0.372-0.067-0.372-0.102-0.744-0.168c-0.405-0.068-0.405,0-0.776-0.068c-0.406-0.067-0.406-0.203-0.778-0.203
		s-0.372,0.034-0.776,0.034c-0.373,0-0.373,0.102-0.744,0.135c-0.372,0.034-0.405,0.068-0.777,0.068
		c-0.338,0.034-0.371-0.034-0.71,0c-0.067,0-0.168,0.135-0.168,0.202c0,0.102,0.134,0.17,0.202,0.17
		c0.405-0.035,0.371-0.102,0.777-0.136c0.371-0.034,0.405,0,0.777-0.034C12.404,27.98,12.371,27.846,12.776,27.846"/>
	<path fill="#FFFFFF" d="M18.825,29.163c-0.371-0.033-0.371-0.067-0.743-0.102c-0.404-0.034-0.404,0.068-0.811,0.068
		c-0.372-0.034-0.338-0.103-0.711-0.136c-0.405-0.034-0.405,0.033-0.776,0c-0.372-0.034-0.372-0.067-0.743-0.067h-0.743
		c-0.406,0-0.406,0.033-0.812,0.101c-0.338,0.068-0.338,0.103-0.71,0.17c-0.372,0.033-0.337,0.101-0.709,0.135
		c-0.339,0.034-0.372-0.034-0.711,0.034c-0.067,0-0.032,0.135-0.032,0.202c0,0.102,0.032,0.135,0.1,0.135
		c0.372-0.066,0.372-0.101,0.744-0.168c0.371-0.067,0.371-0.034,0.778-0.102c0.372-0.034,0.372-0.034,0.743-0.102
		c0.372-0.034,0.304-0.135,0.709-0.135c0.372,0,0.372,0.101,0.743,0.101c0.372,0,0.372-0.067,0.744-0.033
		c0.371,0.033,0.371-0.034,0.778-0.034c0.337,0.034,0.337,0.067,0.708,0.102c0.372,0,0.372,0.102,0.744,0.136
		c0.338,0.033,0.338,0.033,0.676,0.067c0.067,0,0.102-0.136,0.135-0.203C18.927,29.265,18.894,29.163,18.825,29.163"/>
	<path fill="#FFFFFF" d="M19.907,27.033c-0.372-0.067-0.372-0.067-0.743-0.101c-0.339-0.067-0.373-0.102-0.71-0.102h-0.709
		c-0.339,0-0.339,0.169-0.71,0.202C16.73,27.067,16.73,27,16.393,27.067c-0.068,0-0.102,0.102-0.068,0.203
		c0,0.067,0.034,0.135,0.136,0.135c0.338-0.067,0.338-0.101,0.677-0.135c0.371-0.067,0.338-0.135,0.709-0.135h0.709
		c0.339,0,0.305,0,0.678,0.067c0.336,0.034,0.336,0.102,0.675,0.135c0.304,0.067,0.304,0.067,0.642,0.102
		c0.068,0.033,0.17-0.034,0.17-0.135c0.033-0.067-0.034-0.203-0.136-0.203C20.245,27.033,20.245,27.067,19.907,27.033"/>
	<path fill="#FFFFFF" d="M22.645,28.25C22.713,28.284,22.645,28.183,22.645,28.25"/>
	<path fill="#FFFFFF" d="M21.191,28.082c-0.338-0.068-0.338-0.068-0.71-0.068c-0.337,0-0.372-0.102-0.709-0.033
		c-0.338,0-0.338-0.034-0.71,0c-0.305,0.033-0.305,0.102-0.608,0.135c-0.102,0-0.204,0.034-0.169,0.135
		c0,0.068,0.102,0.102,0.169,0.102c0.371-0.033,0.371-0.067,0.71-0.102c0.371-0.033,0.371,0,0.744-0.067
		c0.336-0.033,0.336,0.102,0.675,0.102c0.372,0,0.338,0.034,0.676,0.067c0.338,0.034,0.338,0.068,0.71,0.102
		c0.305,0.068,0.305,0.033,0.642,0.068c0.067,0,0.034-0.17,0.034-0.271c-0.371-0.033-0.371-0.067-0.709-0.101
		C21.562,28.082,21.562,28.115,21.191,28.082"/>
	<path fill="#FFFFFF" d="M8.641,19.045c0.067-0.033,0.101,0,0.033-0.068c-0.136-0.135-0.507-0.776-0.643-1.115
		c-0.066-0.066-0.438-0.1-0.405-0.033c0.067,0.102,0.677,1.082,0.912,1.284C8.607,19.146,8.607,19.112,8.641,19.045"/>
	<path fill="#FFFFFF" d="M9.282,18.876c0.068,0.034,0.169,0,0.103-0.034c-0.643-0.506-0.609-1.148-0.711-1.217v0.034
		c-0.033-0.034-0.372,0-0.338,0.067C8.438,17.93,8.809,18.707,9.282,18.876"/>
	<path fill="#FFFFFF" d="M24.57,28.25c0-0.102-0.067-0.135-0.168-0.135c-0.473-0.033-0.473-0.033-0.98-0.033
		c-0.102,0-0.135,0.066-0.135,0.168c0,0.068,0.033,0.136,0.135,0.136h0.98C24.503,28.386,24.57,28.318,24.57,28.25"/>
	<path fill="#FFFFFF" d="M24.672,27.169C25.044,27.136,25.01,27,25.383,27c0.371,0,0.337,0,0.709,0.033
		c0.371,0,0.371,0.103,0.743,0.136c0.339,0,0.339,0,0.71,0.034c0.305,0.034,0.338-0.067,0.642-0.034c0.067,0,0.17-0.033,0.17-0.102
		c0-0.067-0.067-0.168-0.136-0.168c-0.371-0.034-0.371,0-0.743,0c-0.371-0.034-0.371-0.034-0.743-0.068
		c-0.338,0-0.338-0.034-0.711-0.067H25.28c-0.371,0-0.371,0.102-0.743,0.169c-0.338,0.034-0.338,0.034-0.71,0.067
		c-0.304,0-0.304-0.033-0.642,0c-0.068,0-0.136,0.102-0.136,0.203c0,0.067,0.103,0.135,0.169,0.135
		c0.371-0.033,0.371-0.067,0.711-0.101C24.301,27.169,24.301,27.203,24.672,27.169"/>
	<path fill="#FFFFFF" d="M30.621,27.98c-0.44-0.034-0.406-0.034-0.846-0.068c-0.405-0.033-0.405-0.033-0.811-0.033
		c-0.439,0-0.439,0-0.845,0.033c-0.406,0.068-0.406,0.034-0.812,0.102c-0.371,0.034-0.371,0.034-0.709,0.102
		c-0.102,0-0.203,0.068-0.169,0.135c0,0.102,0.101,0.17,0.202,0.136c0.405-0.034,0.405-0.067,0.81-0.102
		c0.407-0.067,0.407-0.067,0.812-0.136c0.405-0.033,0.372-0.066,0.777-0.033c0.438,0.033,0.405,0.102,0.845,0.135
		c0.338,0.034,0.338,0.034,0.71,0.068c0.067,0,0.135-0.068,0.135-0.17C30.722,28.082,30.688,27.98,30.621,27.98"/>
	<path fill="#FFFFFF" d="M29.471,28.994c-0.439-0.033-0.439,0.033-0.844,0c-0.406-0.033-0.406-0.102-0.811-0.135
		c-0.407-0.034-0.407-0.103-0.812-0.103c-0.438,0-0.438,0.068-0.845,0.136c-0.405,0.033-0.405,0.033-0.811,0.068
		c-0.373,0.033-0.405,0-0.777,0.033c-0.068,0-0.169,0.102-0.169,0.203c0.033,0.066,0.135,0.066,0.202,0.066
		c0.405-0.033,0.405,0,0.846-0.033c0.405-0.033,0.405-0.068,0.811-0.102c0.405-0.067,0.372,0,0.776,0c0.44,0,0.406,0,0.812,0.033
		c0.405,0.035,0.405,0.068,0.811,0.102c0.371,0.034,0.371,0.068,0.777,0.103c0.067,0,0.136-0.103,0.136-0.169
		C29.573,29.096,29.539,28.994,29.471,28.994"/>
	<path fill="#FFFFFF" d="M12.066,25.885c0.204,0.068,0.474,0.068,0.71,0.068c0.338,0,0.642-0.035,0.676-0.035
		c0.068,0,0.135-0.066,0.135-0.168c-0.033-0.068-0.101-0.102-0.169-0.102c-0.033,0-0.337,0.033-0.676,0.033
		c-0.202,0-0.439-0.033-0.574-0.066c-0.102-0.034-0.169,0-0.202,0.066C11.932,25.783,11.999,25.852,12.066,25.885"/>
	<path fill="#FFFFFF" d="M11.83,26.662c-0.338-0.033-0.338-0.067-0.71-0.102c-0.337-0.033-0.337-0.102-0.709-0.102H9.769
		c-0.337,0-0.372,0.068-0.676,0.102c-0.338,0.068-0.338,0.102-0.642,0.135c-0.068,0.035-0.135,0.102-0.102,0.204
		c0,0.066,0.067,0.101,0.135,0.066c0.338-0.033,0.372,0,0.71-0.033c0.338-0.067,0.304-0.169,0.675-0.169h0.643
		c0.338,0,0.305,0.067,0.643,0.102c0.338,0,0.338,0.034,0.643,0.067c0.101,0,0.202-0.067,0.202-0.136
		C11.999,26.73,11.897,26.662,11.83,26.662"/>
	<path fill="#FFFFFF" d="M7.268,21.863l0.034,0.203c0,0.135,0.067,0.202,0.101,0.202c0.034,0,0.068-0.101,0.034-0.202l-0.034-0.203
		c0-0.135-0.066-0.203-0.101-0.203S7.234,21.762,7.268,21.863"/>
	<path fill="#FFFFFF" d="M7.234,22.979h-0.17H7.031v-0.102c0-0.068,0.067-0.169,0.135-0.169L7.2,22.742
		c0.034,0.033,0.068,0.066,0.068,0.135L7.234,22.979 M7.303,23.147l0.032-0.034c0.067-0.033,0.102-0.101,0.102-0.202v-0.034
		c0-0.135-0.067-0.202-0.134-0.27c-0.146-0.088-0.31-0.052-0.354-0.039l-0.02,0.004H6.896c-0.034,0.035-0.034,0.17-0.034,0.271
		v0.338c0,0.101,0,0.404,0.034,0.404l0.067-0.067l0.01-0.032c0.015-0.035,0.044-0.092,0.077-0.138
		c0.034-0.045,0.074-0.08,0.115-0.066l0.103,0.236c0.101,0.067,0.202,0.103,0.236,0.067l-0.034-0.101L7.303,23.147"/>
	<path fill="#FFFFFF" d="M3.077,22.775c-0.236,0-0.473,0.136-0.642,0.136c-0.068,0.033-0.135,0.067-0.135,0.169
		c0,0.067,0.066,0.135,0.168,0.135c0.203,0,0.372-0.169,0.642-0.169c0.339,0,0.608,0.102,0.608,0.102
		c0.103,0,0.17-0.067,0.203-0.135c0-0.102-0.101-0.169-0.168-0.169C3.754,22.844,3.416,22.775,3.077,22.775"/>
	<path fill="#FFFFFF" d="M2.469,22.404c0.203-0.102,0.372-0.102,0.575-0.102c0.337-0.034,0.574,0.102,0.608,0.102
		c0.066,0,0.169-0.068,0.169-0.136c0-0.101-0.068-0.169-0.169-0.169c0,0-0.305-0.102-0.643-0.102c-0.202,0-0.508,0.067-0.676,0.17
		c-0.068,0.033-0.102,0.135-0.033,0.202C2.334,22.438,2.4,22.472,2.469,22.404"/>
	<path fill="#FFFFFF" d="M4.023,24.533c0.102,0.033,0.135,0,0.168-0.102c0-0.067-0.033-0.135-0.1-0.169
		c-0.474-0.067-0.508-0.135-0.98-0.135c-0.44,0.034-0.474,0.102-0.878,0.202c-0.069,0.034-0.103,0.102-0.069,0.203
		c0,0.067,0.069,0.102,0.17,0.067c0.439-0.136,0.406-0.169,0.879-0.202C3.651,24.398,3.618,24.465,4.023,24.533"/>
	<path fill="#FFFFFF" d="M3.787,25.209c0.304,0.033,0.304,0.033,0.608,0.067c0.067,0,0.169-0.236,0.169-0.304s-0.067,0.033-0.136,0
		c-0.338-0.034-0.338-0.034-0.676-0.067c-0.304-0.034-0.338-0.034-0.642-0.034c-0.305,0-0.305,0.135-0.608,0.169
		c-0.068,0.034-0.135,0.102-0.102,0.169c0,0.067,0.067,0.102,0.169,0.102c0.338-0.068,0.305-0.135,0.642-0.135
		C3.517,25.142,3.483,25.142,3.787,25.209"/>
	<path fill="#FFFFFF" d="M5.477,26.967c-0.371,0-0.371-0.068-0.743-0.068s-0.271,0.136-0.608,0.136C3.787,27,3.787,27,3.482,26.967
		c-0.101,0-0.168,0.067-0.168,0.135c0,0.102,0.067,0.168,0.135,0.168c0.405,0,0.405-0.033,0.777,0c0.371,0,0.271-0.033,0.642-0.033
		c0.372,0.033,0.372,0,0.743,0c0.338,0.033,0.44-0.067,0.777,0.033c0.305,0.068,0.305,0.137,0.609,0.204
		c0.067,0.033,0.169-0.067,0.169-0.136c0.033-0.068,0-0.169-0.102-0.203c-0.339-0.066-0.339-0.101-0.71-0.202
		C5.983,26.865,5.849,27,5.477,26.967"/>
	<path fill="#FFFFFF" d="M5.375,21.188v-0.271c0-0.102,0.033-0.236,0.033-0.271h0.035c0.066,0,0.201,0.102,0.201,0.203
		c0,0.067-0.032,0.102-0.032,0.102c-0.103,0.033-0.169,0.067-0.169,0.135c0,0.033,0.101,0.033,0.201,0c0,0,0.078-0.034,0.128-0.108
		c-0.018,0.081-0.025,0.142-0.025,0.142c0,0.102,0.034,0.203,0.068,0.203c0.033,0,0.066-0.067,0.101-0.203
		c0,0,0.102-0.507,0.236-0.507c0.17,0,0.203,0.439,0.203,0.439c0.033,0.103,0.067,0.203,0.102,0.203
		c0.033,0,0.067-0.101,0.067-0.203c0,0,0-0.574-0.372-0.574c-0.182,0-0.284,0.187-0.34,0.358c-0.012-0.164-0.205-0.324-0.369-0.324
		c-0.102,0-0.102,0.033-0.102,0.033c-0.067,0.102-0.102,0.271-0.102,0.372v0.271c0,0.135,0.034,0.203,0.068,0.203
		C5.342,21.391,5.375,21.322,5.375,21.188"/>
	<path fill="#FFFFFF" d="M6.288,21.019c0-0.034-0.068-0.068-0.136-0.068s-0.135,0.034-0.135,0.068c0,0.033,0.067,0.067,0.135,0.067
		S6.288,21.052,6.288,21.019"/>
	<path fill="#FFFFFF" d="M6.659,21.289c0.034,0,0.102-0.034,0.169-0.102c0.102-0.067,0.203-0.102,0.236-0.033
		c0.068,0.033,0.136,0.066,0.17,0.033c0.033,0,0-0.102-0.068-0.136c-0.033-0.067-0.033-0.169,0.068-0.271
		c0.067-0.067,0.101-0.168,0.101-0.168c-0.033-0.034-0.135,0-0.202,0.067c-0.102,0.101-0.203,0.101-0.27,0.033
		c-0.068-0.067-0.135-0.101-0.17-0.067c-0.034,0.034,0,0.102,0.067,0.169s0.034,0.203-0.032,0.271
		C6.659,21.154,6.626,21.255,6.659,21.289"/>
	<path fill="#FFFFFF" d="M5.442,21.829h0.271c0.103,0,0.203-0.034,0.203-0.067c0-0.067-0.101-0.101-0.203-0.101H5.442
		c-0.101,0-0.202,0.033-0.202,0.101C5.24,21.795,5.342,21.829,5.442,21.829"/>
	<path fill="#FFFFFF" d="M5.611,22.168v-0.102c0-0.102-0.033-0.203-0.066-0.203c-0.035,0-0.068,0.102-0.068,0.203v0.102
		c0,0.101,0.033,0.202,0.068,0.202C5.578,22.37,5.611,22.269,5.611,22.168"/>
	<path fill="#FFFFFF" d="M6.018,22.168c0,0.101,0.033,0.202,0.067,0.202c0.067,0,0.101-0.102,0.101-0.202v-0.271
		c0-0.103-0.033-0.203-0.101-0.203c-0.034,0-0.067,0.101-0.067,0.203V22.168z"/>
	<path fill="#FFFFFF" d="M6.659,21.627h0.067h0.035v0.033v0.033c0,0.068-0.103,0.102-0.137,0.102l-0.033,0.103l0.102,0.033
		c0.033,0,0.135,0,0.202,0.034l0.068,0.102V22.1l-0.033,0.034L6.87,22.188c-0.054,0.031-0.12,0.048-0.144,0.048l-0.045,0.028
		l-0.022,0.005c-0.101,0-0.202-0.067-0.202-0.202v-0.136C6.457,21.795,6.559,21.693,6.659,21.627 M6.355,21.627H6.321v0.271v0.271
		v0.236h0.034l0.033,0.033c0.035,0,0.172,0,0.312-0.029l0.025-0.004l0.017-0.006c0.116-0.028,0.229-0.076,0.288-0.163
		c0.067-0.034,0.067-0.102,0.067-0.136v-0.033c0-0.102-0.033-0.169-0.101-0.203L6.964,21.83c-0.068,0-0.068-0.035-0.068-0.068
		l0.035-0.068l-0.035-0.101l-0.101-0.101H6.727H6.719l-0.1,0.014l-0.07,0.021l-0.033,0.012C6.436,21.569,6.374,21.608,6.355,21.627"
		/>
	<path fill="#FFFFFF" d="M5.949,23.249c0.034,0.067,0.069,0.102,0.103,0.102c0.067-0.034,0.067-0.136,0.033-0.237l-0.033-0.067
		c-0.033-0.101-0.068-0.304-0.068-0.338H5.949H5.916l-0.101,0.169c-0.034,0.068-0.169,0.135-0.204,0.068l-0.135-0.237H5.442
		c-0.033,0.034-0.067,0.271-0.101,0.405l-0.034,0.169c-0.033,0.136-0.033,0.236,0,0.236c0.034,0,0.102-0.033,0.135-0.135
		c0-0.067,0.103-0.271,0.136-0.236l0.068,0.067H5.68h0.033l0.068-0.067C5.815,23.113,5.949,23.181,5.949,23.249"/>
	<path fill="#FFFFFF" d="M6.49,23.012l-0.033-0.067l0.033-0.033l0.034-0.034L6.49,23.012 M6.592,22.606H6.559H6.524H6.49
		c0,0.034-0.033,0.034-0.067,0.136l-0.169,0.304c-0.034,0.136-0.102,0.305-0.067,0.305h0.067l0.135-0.237l0.102,0.068
		c0.068,0,0.102,0.067,0.135,0.135c0,0.102,0.068,0.169,0.102,0.135c0.034,0,0.034-0.101,0.034-0.202L6.66,22.775
		C6.66,22.641,6.592,22.641,6.592,22.606"/>
	<path fill="#FFFFFF" d="M5.511,24.5c0.102,0,0.203-0.034,0.203-0.102C5.68,24.364,5.646,24.33,5.578,24.33
		c0,0-0.17-0.034-0.203-0.102c-0.033-0.033-0.067-0.067-0.033-0.135c0.033-0.236,0.202-0.17,0.202-0.17
		c0.102,0,0.136-0.101,0.136-0.135c0-0.066-0.102-0.066-0.203-0.066c0,0-0.27,0.066-0.305,0.337c0,0.136,0.035,0.203,0.102,0.271
		C5.408,24.533,5.511,24.5,5.511,24.5"/>
	<path fill="#FFFFFF" d="M6.187,23.823c0.068,0.034,0.304,0,0.304-0.034c0-0.033-0.101-0.067-0.202-0.067H5.949l-0.033,0.067
		c0,0.068-0.067,0.406-0.101,0.609l0.033,0.033v0.033c0.034,0,0.135,0,0.236,0.034h0.034c0.136,0,0.202-0.034,0.202-0.067
		c0.034-0.033-0.033-0.067-0.102-0.067c-0.067-0.034-0.236-0.136-0.201-0.237v-0.033l0.101,0.033c0.101,0.035,0.202,0,0.202-0.033
		c0-0.034-0.033-0.102-0.102-0.102H6.052C6.085,23.925,6.152,23.823,6.187,23.823"/>
	<path fill="#FFFFFF" d="M8.383,21.289c0.136,0,0.203-0.034,0.203-0.068c0-0.033-0.034-0.066-0.102-0.066S8.315,21.12,8.315,21.12
		v-0.034v-0.209c0.053,0.021,0.154,0.04,0.203,0.04c0.067,0,0.101-0.034,0.135-0.067c0-0.034-0.067-0.068-0.135-0.068
		c-0.038,0-0.107,0.002-0.163,0.015c0.048-0.066,0.117-0.115,0.196-0.115c0.067,0,0.169,0,0.169-0.034
		c0-0.067-0.102-0.102-0.202-0.102c-0.102-0.033-0.236-0.033-0.271-0.033v0.033c-0.136,0.643-0.068,0.676-0.033,0.71
		C8.315,21.289,8.383,21.289,8.383,21.289"/>
	<path fill="#FFFFFF" d="M8.957,21.019c0.068,0.102,0.102,0.202,0.136,0.236h0.033c0.034-0.034,0.103-0.135,0.136-0.236l0.102-0.102
		c0.034-0.102,0.067-0.202,0.034-0.236l-0.136,0.067c-0.033,0.067-0.169,0.169-0.203,0.067c0,0-0.033-0.034-0.033-0.101
		c-0.034-0.068-0.102-0.102-0.136-0.068c-0.034,0-0.034,0.102,0,0.203L8.957,21.019z"/>
	<path fill="#FFFFFF" d="M9.87,20.85v0.067l-0.034-0.102L9.87,20.85 M9.667,21.052c0.068-0.067,0.103-0.101,0.068-0.067
		c0,0.034,0.067,0.067,0.135,0.067s0.101,0.034,0.101,0c0,0,0.035,0.034,0.035,0.103l0.101,0.033l0.067-0.033l0.068-0.034
		c0.033,0,0.066,0,0.066-0.068c0-0.033,0.068-0.135,0.102-0.033c0,0.067,0.068,0.169,0.068,0.169h0.035h0.031
		c0.035-0.033,0.069-0.136,0.103-0.236l0.034-0.102c0.033-0.102,0.033-0.203,0-0.203c-0.067-0.034-0.102,0-0.102,0.034
		c0,0.033-0.102,0.135-0.136,0.033s-0.067-0.202-0.101-0.236h-0.035h-0.033c0,0.034-0.033,0.169-0.067,0.271l-0.034,0.169
		c0,0.102-0.067,0.102-0.102,0l-0.033-0.102c-0.068-0.102-0.102-0.203-0.136-0.236H9.87c-0.034,0-0.101,0.102-0.169,0.202
		L9.6,20.917c-0.067,0.102-0.101,0.169-0.067,0.203S9.634,21.12,9.667,21.052"/>
	<path fill="#FFFFFF" d="M8.553,21.829l0.067,0.068c0,0,0.101,0.067,0.101,0.135c0,0.034-0.067,0.169-0.168,0.202L8.45,22.168
		c-0.066,0-0.101-0.068-0.101-0.17c-0.067-0.304,0.17-0.371,0.17-0.371c0.101,0,0.168-0.068,0.168-0.102
		c0-0.034-0.102-0.034-0.203,0c0,0-0.338,0.136-0.271,0.507c0,0.136,0.068,0.236,0.17,0.271c0.169,0.102,0.438,0.033,0.438,0.033
		l0.033-0.033v-0.271v-0.271H8.822H8.653L8.553,21.829"/>
	<path fill="#FFFFFF" d="M9.126,21.491c0,0-0.032,0.136-0.032,0.237v0.338c0,0.102,0.032,0.202,0.032,0.202v0.033H9.16h0.236
		c0.102-0.033,0.17-0.066,0.17-0.101c0-0.033-0.034-0.067-0.102-0.033L9.262,22.1c0-0.033,0.068-0.135,0.135-0.135
		c0.068,0,0.136-0.034,0.136-0.067c0-0.034-0.067-0.067-0.136-0.067c-0.066,0-0.135-0.035-0.135-0.068
		c0-0.067,0.135-0.169,0.169-0.169c0.067,0,0.102-0.034,0.102-0.067c0-0.034-0.102-0.067-0.169-0.067
		C9.262,21.491,9.16,21.491,9.126,21.491"/>
	<path fill="#FFFFFF" d="M9.803,21.457c-0.033,0-0.068,0.102-0.068,0.237v0.237v0.236c0,0.033,0.136,0.066,0.236,0.066
		c0.102,0,0.17,0,0.17-0.033c0.033-0.067-0.035-0.102-0.068-0.102c-0.066,0-0.202-0.102-0.202-0.236v-0.169
		C9.87,21.559,9.836,21.457,9.803,21.457"/>
	<path fill="#FFFFFF" d="M10.445,22.235c0.033,0,0.068-0.102,0.068-0.237v-0.371c0-0.102-0.068-0.136-0.104-0.136
		c-0.034,0-0.067,0-0.067,0.136v0.404C10.376,22.134,10.41,22.235,10.445,22.235"/>
	<path fill="#FFFFFF" d="M8.755,23.046c-0.102,0.034-0.169,0-0.169,0c-0.135-0.033-0.236-0.033-0.236,0
		c-0.034,0.068,0.067,0.136,0.169,0.169c0,0,0.135,0.034,0.271-0.033c0.067-0.034,0.101-0.067,0.135-0.136
		c0.034-0.169-0.169-0.236-0.271-0.271c-0.102-0.033-0.202-0.067-0.202-0.135c0.067-0.068,0.168-0.034,0.168-0.034
		c0.102,0,0.204-0.034,0.237-0.067c0-0.033-0.102-0.102-0.203-0.102c0,0-0.169-0.033-0.304,0.102
		c-0.034,0.033-0.034,0.067-0.034,0.136c0,0.135,0.169,0.168,0.271,0.236c0.169,0.033,0.203,0.067,0.169,0.102V23.046z"/>
	<path fill="#FFFFFF" d="M9.317,22.622c-0.013,0.068-0.021,0.153-0.021,0.222v0.033c0,0.136,0.032,0.236,0.066,0.236
		c0.033,0,0.068-0.101,0.068-0.236v-0.033c0-0.074-0.012-0.167-0.026-0.237C9.519,22.605,9.6,22.6,9.6,22.539
		c0-0.034-0.102-0.067-0.203-0.067H9.329c-0.101,0-0.203,0.033-0.203,0.067c0,0.033,0.034,0.102,0.136,0.102L9.317,22.622z"/>
	<path fill="#FFFFFF" d="M9.938,22.472c-0.203,0.169-0.168,0.405-0.168,0.405c0,0.102,0.033,0.203,0.066,0.203
		s0.068-0.102,0.102-0.203c0,0-0.068-0.202,0.068-0.304c0.066-0.034,0.1-0.034,0.135-0.034c0.067,0,0.101,0.034,0.136,0.067
		l0.033,0.034c0,0-0.068,0.034-0.169,0.034c-0.102,0-0.17,0.033-0.17,0.067c0,0.033,0.068,0.067,0.17,0.067
		c0.101,0,0.169,0,0.169-0.034c0-0.067,0-0.033,0.033,0.034c0,0.067,0,0.202,0.034,0.202c0.067,0,0.137,0.102,0.169,0
		c0,0,0-0.304-0.136-0.506c-0.067-0.068-0.134-0.102-0.236-0.136C10.072,22.37,10.006,22.404,9.938,22.472"/>
	<path fill="#FFFFFF" d="M8.991,23.282c-0.034,0.034-0.102,0.103-0.135,0.169c-0.067,0.034-0.203,0.135-0.271,0.068l-0.135-0.135
		H8.416v0.033c-0.033,0.033-0.033,0.135-0.033,0.27v0.271c0,0.136,0.033,0.204,0.068,0.204c0.033,0,0.067-0.034,0.067-0.137
		c0-0.067,0.033-0.304,0.067-0.27l0.067,0.067h0.034l0.102-0.067c0-0.034,0.134-0.068,0.101,0.033v0.203
		c0,0.102,0.033,0.17,0.067,0.17s0.068-0.103,0.068-0.204l0.034-0.372v-0.27H9.025L8.991,23.282z"/>
	<path fill="#FFFFFF" d="M9.532,23.384c0.101,0,0.169-0.033,0.169-0.067S9.6,23.249,9.499,23.249c-0.103-0.034-0.203,0-0.203,0
		c-0.034,0-0.067,0.135-0.067,0.236L9.16,23.857v0.271l0.034,0.033h0.169c0.102,0,0.169-0.033,0.169-0.067l-0.067-0.068
		l-0.136-0.102c0-0.066,0.067-0.236,0.136-0.201L9.6,23.688c0-0.033-0.034-0.101-0.101-0.101c-0.068-0.034-0.103-0.034-0.136,0
		v-0.068C9.363,23.485,9.465,23.384,9.532,23.384"/>
	<path fill="#FFFFFF" d="M10.14,23.485l-0.067,0.067c0,0.034-0.066,0.17-0.101,0.102c0-0.102-0.034-0.169-0.068-0.203H9.87H9.836
		c0,0.034-0.067,0.136-0.067,0.237l-0.067,0.202c-0.034,0.102-0.034,0.203,0,0.203c0.067,0.034,0.102,0,0.102-0.033
		c0.033-0.068,0.101-0.17,0.101-0.102c0.034,0.102,0.068,0.202,0.103,0.236h0.033h0.033c0-0.034,0.034-0.135,0.067-0.271
		l0.034-0.236C10.208,23.587,10.208,23.485,10.14,23.485"/>
	<path fill="#FFFFFF" d="M10.58,23.756l-0.102-0.102c-0.033-0.067,0-0.067,0-0.067c0.102-0.068,0.17-0.136,0.17-0.169
		c0-0.034-0.103-0.034-0.203,0c0,0-0.169,0.067-0.136,0.27c0.033,0.102,0.136,0.17,0.203,0.203c0.101,0.068,0.101,0.068,0.067,0.102
		c-0.034,0.102-0.102,0.067-0.102,0.067c-0.102-0.034-0.202-0.034-0.236,0c0,0.034,0.067,0.068,0.169,0.136
		c0,0,0.202,0.033,0.304-0.136C10.783,23.924,10.648,23.823,10.58,23.756"/>
	<path fill="#FFFFFF" d="M22.34,19.903c-0.033-0.068-0.135,0-0.202,0.034c-0.067,0-0.271-0.103-0.236,0l0.337,0.844
		c0.034,0.102,0.068,0.169,0.136,0.136c0.068-0.034,0.101-0.136,0.068-0.202L22.34,19.903z"/>
	<path fill="#FFFFFF" d="M19.535,4.121c0.271,0.102,0.643,0.102,1.014,0.102c0.473,0,0.914-0.035,0.946-0.035
		c0.103,0,0.203-0.135,0.17-0.235c0-0.102-0.136-0.169-0.237-0.169c0,0-0.439,0.067-0.912,0.067c-0.305,0-0.642-0.034-0.845-0.102
		c-0.136-0.034-0.236,0-0.271,0.102C19.367,3.986,19.435,4.087,19.535,4.121"/>
	<path fill="#FFFFFF" d="M13.452,2.701c0.271,0.102,0.642,0.102,0.98,0.102c0.507-0.034,0.911-0.034,0.946-0.034
		c0.136-0.033,0.236-0.135,0.202-0.271c0-0.101-0.135-0.168-0.237-0.135c0,0-0.473,0.034-0.944,0.034
		c-0.306,0-0.609-0.034-0.846-0.101c-0.102-0.035-0.203,0.033-0.236,0.135S13.317,2.668,13.452,2.701"/>
	<path fill="#FFFFFF" d="M3.584,3.073c0.507,0,0.507,0.067,0.98,0.067c0.507,0,0.507-0.033,1.047-0.033
		c0.44,0,0.44-0.034,0.914-0.034c0.473,0,0.473,0.034,0.945,0.034h0.912c0.102,0,0.271-0.102,0.271-0.203S8.484,2.735,8.383,2.735
		c-0.507,0-0.507-0.034-0.98-0.034c-0.506,0-0.506-0.033-1.013-0.033H5.442H4.496c-0.438-0.033-0.438,0-0.912,0
		c-0.102,0-0.168,0.135-0.168,0.236S3.482,3.073,3.584,3.073"/>
	<path fill="#FFFFFF" d="M7.031,4.154C6.559,4.121,6.559,4.053,6.119,4.053c-0.102,0-0.17,0.136-0.17,0.271
		c0,0.102,0.068,0.203,0.17,0.203c0.506,0,0.506-0.033,1.014-0.033c0.506,0,0.506,0.066,1.014,0.066H9.16
		c0.473,0,0.473-0.066,0.979-0.066c0.508,0,0.508,0.066,0.98,0.066h0.913c0.135,0,0.236-0.135,0.236-0.236
		c0-0.135-0.102-0.271-0.236-0.271c-0.507,0-0.507,0.035-0.98,0.035c-0.541,0-0.541,0.033-1.047,0.033
		c-0.508,0-0.508,0.033-0.98,0.033H8.012H7.031z"/>
	<path fill="#FFFFFF" d="M10.41,5.473c-0.102,0-0.236,0.067-0.236,0.203c0,0.102,0.135,0.169,0.236,0.169
		c0.508,0,0.508-0.034,1.014-0.034h1.015h1.014h0.979c0.508,0,0.508,0.067,1.015,0.067c0.439,0,0.439-0.067,0.912-0.067
		c0.103,0,0.169-0.033,0.169-0.135c0-0.136-0.066-0.203-0.169-0.203c-0.507,0-0.507-0.067-1.013-0.067
		c-0.508,0-0.508,0.034-1.015,0.034s-0.507,0.033-1.014,0.033h-0.98c-0.507,0-0.507-0.067-1.014-0.067
		C10.884,5.439,10.884,5.473,10.41,5.473"/>
	<path fill="#FFFFFF" d="M22.408,5.979c0.71,0,0.71-0.034,1.419-0.034c0.103,0,0.202-0.066,0.202-0.168
		c0-0.136-0.1-0.203-0.202-0.203c-0.709,0-0.709-0.034-1.419-0.034c-0.136,0-0.203,0.102-0.203,0.237
		C22.205,5.879,22.272,5.979,22.408,5.979"/>
	<path fill="#FFFFFF" d="M5.578,5.642c-0.136,0-0.203,0.102-0.203,0.203s0.067,0.236,0.203,0.236c0.711,0,0.711-0.034,1.386-0.034
		c0.135,0,0.236-0.101,0.236-0.202S7.099,5.642,6.964,5.642H5.578z"/>
	<path fill="#FFFFFF" d="M22.915,4.392c0.507,0,0.507-0.034,1.046-0.034c0.508,0,0.508,0.034,1.049,0.034
		c0.507,0,0.507-0.034,0.98-0.034c0.541,0,0.541-0.033,1.082-0.033c0.507,0,0.507,0.135,1.047,0.135h0.98
		c0.474,0,0.474-0.135,0.912-0.135c0.102,0,0.236-0.034,0.236-0.136c0-0.136-0.135-0.236-0.236-0.236
		c-0.507,0-0.507,0.067-1.014,0.067H27.95c-0.507,0-0.507-0.033-1.013-0.033h-1.049c-0.54,0-0.54,0.033-1.047,0.033h-1.015
		c-0.473-0.033-0.439-0.102-0.912-0.102c-0.103,0-0.237,0.135-0.237,0.271C22.678,4.29,22.812,4.392,22.915,4.392"/>
	<path fill="#FFFFFF" d="M28.594,6.521c-0.576,0-0.576-0.034-1.15-0.034s-0.574,0.067-1.149,0.067c-0.574,0-0.574,0.034-1.147,0.034
		c-0.542,0-0.542-0.067-1.082-0.067c-0.136,0-0.271,0.135-0.271,0.236c0,0.136,0.136,0.169,0.271,0.169
		c0.574,0,0.574,0.068,1.148,0.068c0.608,0,0.608-0.068,1.184-0.068c0.574,0,0.574,0.102,1.148,0.102
		c0.575,0,0.575-0.067,1.183-0.067c0.575,0,0.575,0.034,1.149,0.034c0.541,0,0.541,0.033,1.081,0.033
		c0.102,0,0.169-0.135,0.169-0.271c0-0.102-0.067-0.271-0.169-0.271c-0.607,0-0.607,0.136-1.183,0.136
		C29.201,6.622,29.201,6.521,28.594,6.521"/>
	<path fill="#FFFFFF" d="M14.086,21.086c0.135,0,0.236-0.777,0.236-0.777l-0.506-0.946C13.816,19.362,14.086,20.275,14.086,21.086"
		/>
	<path fill="#FFFFFF" d="M20.777,29.23c0,0-0.304-0.135-0.643-0.135c-0.202,0-0.439,0.135-0.607,0.102
		c-0.068-0.035-0.136,0-0.168,0.066c-0.035,0.103,0,0.17,0.1,0.203c0.203,0.067,0.474-0.101,0.71-0.101
		c0.338,0,0.642,0.134,0.677,0.134c0.066,0,0.135-0.101,0.135-0.168C20.945,29.264,20.879,29.197,20.777,29.23"/>
	<path fill="#FFFFFF" d="M8.273,28.926c-0.338-0.033-0.338-0.033-0.675-0.101c-0.306-0.067-0.339-0.102-0.644-0.067
		c-0.304,0.033-0.304,0.067-0.574,0.067c-0.102,0.034-0.17,0.067-0.17,0.169c0.035,0.067,0.103,0.102,0.17,0.102
		c0.338-0.034,0.338,0,0.676-0.034c0.339-0.034,0.27,0,0.575,0.068c0.304,0.033,0.304,0.033,0.608,0.101
		c0.066,0,0.135-0.067,0.135-0.135C8.408,29.027,8.342,28.96,8.273,28.926"/>
	<path fill="#FFFFFF" d="M6.753,28.318c0-0.068-0.034-0.203-0.102-0.203c-0.372-0.102-0.372-0.067-0.743-0.169
		c-0.339-0.067-0.339-0.067-0.71-0.135c-0.338-0.068-0.372,0-0.744,0.034c-0.371,0.066-0.371,0.066-0.743,0.101
		c-0.338,0.067-0.338,0.034-0.676,0.102c-0.067,0-0.135,0.067-0.135,0.135c0,0.102,0.102,0.136,0.168,0.136
		C3.44,28.25,3.44,28.25,3.812,28.183c0.372-0.033,0.372-0.033,0.743-0.067c0.339-0.067,0.305-0.067,0.643,0
		c0.371,0.067,0.371,0.067,0.71,0.169c0.338,0.067,0.338,0.067,0.676,0.136C6.651,28.42,6.719,28.387,6.753,28.318"/>
	<path fill="#FFFFFF" d="M4.049,29.027c0.068,0,0.17-0.066,0.17-0.135c0-0.067-0.102-0.168-0.17-0.168c-0.371,0-0.371,0.033-0.71,0
		H2.631c-0.34,0-0.34,0-0.677,0.066c-0.304,0.068-0.304,0.102-0.644,0.135c-0.066,0.035-0.134,0.068-0.134,0.136
		c0.033,0.102,0.102,0.136,0.169,0.136c0.372-0.068,0.372-0.068,0.709-0.136c0.372-0.034,0.305-0.067,0.676-0.067h0.643
		C3.711,28.994,3.711,29.027,4.049,29.027"/>
	<path fill="#FFFFFF" d="M4.995,29.467c0-0.033-0.304-0.067-0.675-0.135c-0.203-0.033-0.541,0-0.744,0.034
		c-0.271,0.067-0.507,0.101-0.607,0.134c-0.068,0-0.136,0.103-0.136,0.17c0.033,0.067,0.101,0.102,0.202,0.102
		c0.067,0,0.338-0.034,0.677-0.102c0.202-0.033,0.405-0.102,0.608-0.067c0.337,0.067,0.607,0.135,0.643,0.135
		c0.066,0.034,0.168-0.033,0.168-0.101C5.131,29.534,5.097,29.467,4.995,29.467"/>
	<path fill="#FFFFFF" d="M11.18,27.846h0.744c0.404,0,0.371,0.101,0.743,0.168c0.371,0.068,0.371,0.034,0.777,0.102
		c0.338,0.068,0.338,0.102,0.677,0.169c0.066,0,0.134-0.067,0.168-0.136c0-0.066-0.034-0.135-0.135-0.135
		c-0.372-0.067-0.372-0.102-0.744-0.168c-0.405-0.068-0.405,0-0.776-0.068c-0.407-0.067-0.407-0.203-0.778-0.203
		s-0.371,0.034-0.777,0.034c-0.372,0-0.372,0.102-0.743,0.135c-0.372,0.034-0.405,0.068-0.777,0.068
		c-0.338,0.034-0.371-0.034-0.71,0c-0.066,0-0.168,0.135-0.168,0.202c0,0.102,0.135,0.17,0.202,0.17
		c0.405-0.035,0.372-0.102,0.778-0.136c0.371-0.034,0.404,0,0.775-0.034C10.809,27.98,10.774,27.846,11.18,27.846"/>
	<path fill="#FFFFFF" d="M17.229,29.163c-0.371-0.033-0.371-0.067-0.743-0.102c-0.404-0.034-0.404,0.068-0.811,0.068
		c-0.372-0.034-0.338-0.103-0.71-0.136c-0.406-0.034-0.406,0.033-0.777,0c-0.371-0.034-0.371-0.067-0.743-0.067h-0.743
		c-0.406,0-0.406,0.033-0.812,0.101c-0.339,0.068-0.339,0.103-0.71,0.17c-0.372,0.033-0.338,0.101-0.709,0.135
		c-0.338,0.034-0.371-0.034-0.711,0.034c-0.067,0-0.033,0.135-0.033,0.202c0,0.102,0.033,0.135,0.102,0.135
		c0.371-0.066,0.371-0.101,0.743-0.168s0.372-0.034,0.778-0.102c0.371-0.034,0.371-0.034,0.744-0.102
		c0.371-0.034,0.303-0.135,0.708-0.135c0.372,0,0.372,0.101,0.743,0.101c0.372,0,0.372-0.067,0.744-0.033
		c0.371,0.033,0.371-0.034,0.778-0.034c0.337,0.034,0.337,0.067,0.708,0.102c0.373,0,0.373,0.102,0.744,0.136
		c0.338,0.033,0.338,0.033,0.676,0.067c0.067,0,0.103-0.136,0.136-0.203C17.331,29.265,17.298,29.163,17.229,29.163"/>
	<path fill="#FFFFFF" d="M18.311,27.033c-0.372-0.067-0.372-0.067-0.743-0.101c-0.339-0.067-0.372-0.102-0.71-0.102h-0.709
		c-0.339,0-0.339,0.169-0.711,0.202c-0.304,0.034-0.304-0.033-0.641,0.034c-0.068,0-0.103,0.102-0.068,0.203
		c0,0.067,0.033,0.135,0.135,0.135c0.338-0.067,0.338-0.101,0.677-0.135c0.372-0.067,0.337-0.135,0.709-0.135h0.709
		c0.339,0,0.306,0,0.677,0.067c0.337,0.034,0.337,0.102,0.676,0.135c0.305,0.067,0.305,0.067,0.642,0.102
		c0.068,0.033,0.17-0.034,0.17-0.135c0.033-0.067-0.034-0.203-0.136-0.203C18.648,27.033,18.648,27.067,18.311,27.033"/>
	<path fill="#FFFFFF" d="M21.048,28.25C21.117,28.284,21.048,28.183,21.048,28.25"/>
	<path fill="#FFFFFF" d="M19.596,28.082c-0.339-0.068-0.339-0.068-0.711-0.068c-0.337,0-0.371-0.102-0.709-0.033
		c-0.338,0-0.338-0.034-0.71,0c-0.305,0.033-0.305,0.102-0.608,0.135c-0.102,0-0.203,0.034-0.169,0.135
		c0,0.068,0.101,0.102,0.169,0.102c0.371-0.033,0.371-0.067,0.711-0.102c0.371-0.033,0.371,0,0.742-0.067
		c0.338-0.033,0.338,0.102,0.676,0.102c0.372,0,0.338,0.034,0.676,0.067C20,28.386,20,28.42,20.372,28.453
		c0.304,0.068,0.304,0.033,0.642,0.068c0.068,0,0.035-0.17,0.035-0.271c-0.373-0.033-0.373-0.067-0.711-0.101
		C19.967,28.082,19.967,28.115,19.596,28.082"/>
	<path fill="#FFFFFF" d="M31.592,24.776c-0.02,0-0.062-0.003-0.124-0.006c-0.269-0.017-0.828-0.049-1.273,0.007
		c-0.402,0.08-0.679,0.097-1.028,0.117c-0.088,0.005-0.182,0.01-0.282,0.018l-0.057,0.064l0.062,0.057h0.004
		c0.101-0.006,0.192-0.012,0.28-0.018c0.354-0.02,0.635-0.037,1.041-0.118c0.43-0.054,0.981-0.021,1.247-0.005
		c0.064,0.003,0.111,0.006,0.131,0.006l0.062-0.061L31.592,24.776"/>
	<path fill="#FFFFFF" d="M31.423,28.486c-0.473-0.135-0.473-0.236-0.979-0.27c-0.405-0.033-0.439,0.033-0.878,0.135
		c-0.068,0-0.103,0.067-0.103,0.169c0.034,0.068,0.068,0.136,0.17,0.102c0.472-0.102,0.438-0.169,0.912-0.136
		c0.439,0.034,0.371,0.136,0.811,0.271c0.067,0,0.136-0.033,0.136-0.101C31.525,28.589,31.491,28.486,31.423,28.486"/>
	<path fill="#FFFFFF" d="M22.975,28.25c0-0.102-0.068-0.135-0.169-0.135c-0.474-0.033-0.474-0.033-0.98-0.033
		c-0.102,0-0.135,0.066-0.135,0.168c0,0.068,0.033,0.136,0.135,0.136h0.98C22.906,28.386,22.975,28.318,22.975,28.25"/>
	<path fill="#FFFFFF" d="M23.076,27.169C23.447,27.136,23.414,27,23.786,27c0.37,0,0.337,0,0.709,0.033
		c0.371,0,0.371,0.103,0.743,0.136c0.339,0,0.339,0,0.71,0.034c0.305,0.034,0.338-0.067,0.642-0.034c0.067,0,0.17-0.033,0.17-0.102
		c0-0.067-0.067-0.168-0.136-0.168c-0.371-0.034-0.371,0-0.743,0c-0.371-0.034-0.371-0.034-0.743-0.068
		c-0.338,0-0.338-0.034-0.711-0.067h-0.743c-0.371,0-0.371,0.102-0.743,0.169c-0.338,0.034-0.338,0.034-0.71,0.067
		c-0.305,0-0.305-0.033-0.642,0c-0.068,0-0.136,0.102-0.136,0.203c0,0.067,0.102,0.135,0.168,0.135
		c0.373-0.033,0.373-0.067,0.711-0.101C22.703,27.169,22.703,27.203,23.076,27.169"/>
	<path fill="#FFFFFF" d="M27.841,27c0.033,0.102,0.102,0.136,0.169,0.136c0.439-0.067,0.439-0.034,0.845-0.067
		c0.405-0.068,0.405-0.136,0.812-0.136c0.405,0,0.372,0.067,0.811,0.169c0.372,0.067,0.372,0,0.744,0.067
		c0.068,0,0.169,0,0.203-0.067c0-0.102-0.069-0.203-0.135-0.203c-0.44-0.102-0.44-0.102-0.846-0.168
		c-0.405-0.068-0.439-0.136-0.846-0.136c-0.438,0-0.438,0.067-0.878,0.136c-0.372,0.066-0.372,0.101-0.743,0.135
		C27.908,26.898,27.841,26.933,27.841,27"/>
	<path fill="#FFFFFF" d="M29.024,27.98c-0.44-0.034-0.406-0.034-0.846-0.068c-0.405-0.033-0.405-0.033-0.811-0.033
		c-0.44,0-0.44,0-0.845,0.033c-0.406,0.068-0.406,0.034-0.812,0.102c-0.371,0.034-0.371,0.034-0.709,0.102
		c-0.103,0-0.203,0.068-0.169,0.135c0,0.102,0.101,0.17,0.202,0.136c0.405-0.034,0.405-0.067,0.81-0.102
		c0.407-0.067,0.407-0.067,0.812-0.136c0.406-0.033,0.372-0.066,0.777-0.033c0.439,0.033,0.404,0.102,0.846,0.135
		c0.337,0.034,0.337,0.034,0.709,0.068c0.067,0,0.135-0.068,0.135-0.17C29.125,28.082,29.091,27.98,29.024,27.98"/>
	<path fill="#FFFFFF" d="M27.875,28.994c-0.44-0.033-0.44,0.033-0.845,0c-0.406-0.033-0.406-0.102-0.812-0.135
		c-0.406-0.034-0.406-0.103-0.812-0.103c-0.438,0-0.438,0.068-0.845,0.136c-0.405,0.033-0.405,0.033-0.811,0.068
		c-0.373,0.033-0.406,0-0.777,0.033c-0.068,0-0.169,0.102-0.169,0.203c0.033,0.066,0.134,0.066,0.202,0.066
		c0.406-0.033,0.406,0,0.847-0.033c0.404-0.033,0.404-0.068,0.81-0.102c0.405-0.067,0.372,0,0.776,0c0.44,0,0.407,0,0.812,0.033
		c0.405,0.035,0.405,0.068,0.811,0.102c0.371,0.034,0.371,0.068,0.777,0.103c0.067,0,0.136-0.103,0.136-0.169
		C27.977,29.096,27.942,28.994,27.875,28.994"/>
	<path fill="#FFFFFF" d="M10.47,25.885c0.204,0.068,0.474,0.068,0.711,0.068c0.337,0,0.642-0.035,0.675-0.035
		c0.068,0,0.135-0.066,0.135-0.168c-0.033-0.068-0.101-0.102-0.168-0.102c-0.033,0-0.338,0.033-0.676,0.033
		c-0.203,0-0.439-0.033-0.575-0.066c-0.102-0.034-0.169,0-0.202,0.066C10.335,25.783,10.402,25.852,10.47,25.885"/>
	<path fill="#FFFFFF" d="M10.233,26.662c-0.338-0.033-0.338-0.067-0.71-0.102c-0.337-0.033-0.337-0.102-0.709-0.102H8.172
		c-0.338,0-0.372,0.068-0.676,0.102c-0.338,0.068-0.338,0.102-0.643,0.135c-0.067,0.035-0.135,0.102-0.101,0.204
		c0,0.066,0.067,0.101,0.135,0.066c0.338-0.033,0.372,0,0.71-0.033c0.338-0.067,0.304-0.169,0.676-0.169h0.643
		c0.337,0,0.304,0.067,0.643,0.102c0.337,0,0.337,0.034,0.642,0.067c0.101,0,0.202-0.067,0.202-0.136
		C10.402,26.73,10.301,26.662,10.233,26.662"/>
	<path fill="#FFFFFF" d="M1.481,22.775c-0.237,0-0.475,0.136-0.644,0.136c-0.067,0.033-0.134,0.067-0.134,0.169
		c0,0.067,0.066,0.135,0.168,0.135c0.202,0,0.372-0.169,0.643-0.169c0.337,0,0.607,0.102,0.607,0.102
		c0.103,0,0.17-0.067,0.203-0.135c0-0.102-0.101-0.169-0.169-0.169C2.156,22.844,1.818,22.775,1.481,22.775"/>
	<path fill="#FFFFFF" d="M0.872,22.404c0.203-0.102,0.372-0.102,0.575-0.102c0.338-0.034,0.574,0.102,0.608,0.102
		c0.066,0,0.169-0.068,0.169-0.136c0-0.101-0.068-0.169-0.169-0.169c0,0-0.305-0.102-0.644-0.102c-0.201,0-0.506,0.067-0.675,0.17
		c-0.067,0.033-0.102,0.135-0.033,0.202C0.737,22.438,0.804,22.472,0.872,22.404"/>
	<path fill="#FFFFFF" d="M2.428,24.533c0.101,0.033,0.134,0,0.168-0.102c0-0.067-0.034-0.135-0.101-0.169
		c-0.474-0.067-0.508-0.135-0.979-0.135c-0.441,0.034-0.475,0.102-0.879,0.202c-0.068,0.034-0.103,0.102-0.068,0.203
		c0,0.067,0.068,0.102,0.169,0.067c0.439-0.136,0.405-0.169,0.879-0.202C2.055,24.398,2.021,24.465,2.428,24.533"/>
	<path fill="#FFFFFF" d="M2.19,25.209c0.304,0.033,0.304,0.033,0.608,0.067c0.067,0,0.169-0.236,0.169-0.304s-0.067,0.033-0.136,0
		c-0.338-0.034-0.338-0.034-0.676-0.067c-0.305-0.034-0.338-0.034-0.641-0.034c-0.306,0-0.306,0.135-0.609,0.169
		c-0.068,0.034-0.135,0.102-0.102,0.169c0,0.067,0.067,0.102,0.169,0.102c0.337-0.068,0.305-0.135,0.642-0.135
		C1.92,25.142,1.887,25.142,2.19,25.209"/>
	<path fill="#FFFFFF" d="M3.88,26.967c-0.372,0-0.372-0.068-0.743-0.068c-0.372,0-0.271,0.136-0.608,0.136
		C2.19,27,2.19,27,1.887,26.967c-0.102,0-0.169,0.067-0.169,0.135c0,0.102,0.067,0.168,0.135,0.168c0.405,0,0.405-0.033,0.776,0
		c0.373,0,0.271-0.033,0.643-0.033c0.372,0.033,0.372,0,0.744,0c0.338,0.033,0.439-0.067,0.776,0.033
		c0.305,0.068,0.305,0.137,0.608,0.204c0.068,0.033,0.17-0.067,0.17-0.136c0.033-0.068,0-0.169-0.102-0.203
		c-0.338-0.066-0.338-0.101-0.71-0.202C4.387,26.865,4.252,27,3.88,26.967"/>
	<path fill="#FFFFFF" d="M20.743,19.903c-0.033-0.068-0.134,0-0.202,0.034c-0.068,0-0.271-0.103-0.236,0l0.337,0.844
		c0.034,0.102,0.068,0.169,0.136,0.136c0.068-0.034,0.102-0.136,0.068-0.202L20.743,19.903z"/>
	<path fill="#FFFFFF" d="M17.938,4.121c0.271,0.102,0.643,0.102,1.014,0.102c0.474,0,0.913-0.035,0.946-0.035
		c0.103,0,0.203-0.135,0.17-0.235c0-0.102-0.136-0.169-0.236-0.169c0,0-0.44,0.067-0.914,0.067c-0.303,0-0.641-0.034-0.844-0.102
		c-0.136-0.034-0.236,0-0.271,0.102C17.771,3.986,17.838,4.087,17.938,4.121"/>
	<path fill="#FFFFFF" d="M11.855,2.701c0.271,0.102,0.643,0.102,0.98,0.102c0.507-0.034,0.912-0.034,0.946-0.034
		c0.136-0.033,0.236-0.135,0.202-0.271c0-0.101-0.135-0.168-0.236-0.135c0,0-0.474,0.034-0.945,0.034
		c-0.305,0-0.609-0.034-0.846-0.101c-0.102-0.035-0.203,0.033-0.236,0.135S11.721,2.668,11.855,2.701"/>
	<path fill="#FFFFFF" d="M8.814,5.473c-0.102,0-0.237,0.067-0.237,0.203c0,0.102,0.136,0.169,0.237,0.169
		c0.506,0,0.506-0.034,1.014-0.034h1.014h1.014h0.98c0.506,0,0.506,0.067,1.014,0.067c0.439,0,0.439-0.067,0.912-0.067
		c0.103,0,0.169-0.033,0.169-0.135c0-0.136-0.066-0.203-0.169-0.203c-0.507,0-0.507-0.067-1.014-0.067s-0.507,0.034-1.014,0.034
		c-0.508,0-0.508,0.033-1.014,0.033h-0.98c-0.507,0-0.507-0.067-1.014-0.067C9.287,5.439,9.287,5.473,8.814,5.473"/>
	<path fill="#FFFFFF" d="M20.812,5.979c0.71,0,0.71-0.034,1.419-0.034c0.102,0,0.203-0.066,0.203-0.168
		c0-0.136-0.102-0.203-0.203-0.203c-0.709,0-0.709-0.034-1.419-0.034c-0.136,0-0.203,0.102-0.203,0.237
		C20.608,5.879,20.676,5.979,20.812,5.979"/>
	<path fill="#FFFFFF" d="M3.981,5.642c-0.136,0-0.203,0.102-0.203,0.203s0.067,0.236,0.203,0.236c0.711,0,0.711-0.034,1.386-0.034
		c0.135,0,0.236-0.101,0.236-0.202S5.502,5.642,5.367,5.642H3.981z"/>
	<path fill="#FFFFFF" d="M21.318,4.392c0.507,0,0.507-0.034,1.047-0.034c0.508,0,0.508,0.034,1.048,0.034
		c0.507,0,0.507-0.034,0.98-0.034c0.541,0,0.541-0.033,1.081-0.033c0.508,0,0.508,0.135,1.048,0.135h0.98
		c0.474,0,0.474-0.135,0.912-0.135c0.102,0,0.236-0.034,0.236-0.136c0-0.136-0.135-0.236-0.236-0.236
		c-0.507,0-0.507,0.067-1.014,0.067h-1.048c-0.508,0-0.508-0.033-1.013-0.033h-1.049c-0.54,0-0.54,0.033-1.048,0.033H22.23
		c-0.473-0.033-0.439-0.102-0.912-0.102c-0.102,0-0.236,0.135-0.236,0.271C21.082,4.29,21.217,4.392,21.318,4.392"/>
	<path fill="#FFFFFF" d="M26.996,6.521c-0.575,0-0.575-0.034-1.149-0.034s-0.574,0.067-1.148,0.067
		c-0.575,0-0.575,0.034-1.149,0.034c-0.541,0-0.541-0.067-1.082-0.067c-0.135,0-0.27,0.135-0.27,0.236
		c0,0.136,0.135,0.169,0.27,0.169c0.575,0,0.575,0.068,1.149,0.068c0.608,0,0.608-0.068,1.183-0.068s0.574,0.102,1.15,0.102
		c0.574,0,0.574-0.067,1.182-0.067c0.575,0,0.575,0.034,1.148,0.034c0.542,0,0.542,0.033,1.082,0.033
		c0.102,0,0.169-0.135,0.169-0.271c0-0.102-0.067-0.271-0.169-0.271c-0.607,0-0.607,0.136-1.183,0.136S27.604,6.521,26.996,6.521"/>
</g>
</svg>
