<?xml version="1.0" encoding="utf-8"?>
<!-- Generator: Adobe Illustrator 16.0.4, SVG Export Plug-In . SVG Version: 6.00 Build 0)  -->
<!DOCTYPE svg PUBLIC "-//W3C//DTD SVG 1.1//EN" "http://www.w3.org/Graphics/SVG/1.1/DTD/svg11.dtd">
<svg version="1.1" id="Layer_1" xmlns="http://www.w3.org/2000/svg" xmlns:xlink="http://www.w3.org/1999/xlink" x="0px" y="0px"
	 width="32px" height="32px" viewBox="0 0 32 32" enable-background="new 0 0 32 32" xml:space="preserve">
<path fill="#FFFFFF" d="M15.999,0C7.177,0,0.021,7.164,0.021,15.999C0.021,24.835,7.177,32,15.999,32
	c8.827,0,15.979-7.165,15.979-16.001C31.978,7.164,24.826,0,15.999,0z M9.919,26.037c0-1.791,0.576-3.281,1.718-4.465
	c1.146-1.187,2.616-1.781,4.407-1.781c1.784,0,3.243,0.607,4.36,1.823c1.119,1.218,1.678,2.714,1.678,4.502L9.919,26.037z
	 M20.404,15.46c-1.113,1.189-2.566,1.781-4.346,1.781c-1.783,0-3.254-0.603-4.408-1.815c-1.155-1.205-1.731-2.708-1.731-4.497
	c0-1.791,0.576-3.281,1.718-4.465c1.146-1.189,2.616-1.781,4.407-1.781s3.247,0.608,4.36,1.823c1.119,1.218,1.68,2.716,1.68,4.502
	C22.084,12.792,21.523,14.276,20.404,15.46z"/>
</svg>
